{"glyphs":{"0":{"ha":807,"x_min":69,"x_max":739,"o":"m 329 92 q 375 101 350 108 l 383 99 q 389 99 386 99 q 449 94 404 99 q 485 94 474 93 q 526 117 499 101 q 549 142 542 125 q 594 222 564 185 q 624 307 611 243 q 638 424 638 379 q 636 526 639 471 q 624 618 635 578 q 575 703 613 654 q 506 774 538 753 q 460 797 474 794 q 404 794 443 800 q 311 763 365 789 q 225 699 258 736 q 181 622 193 663 q 169 539 169 579 q 188 432 171 496 q 226 310 204 367 q 276 199 249 254 q 319 108 306 140 q 329 92 324 99 m 378 -1 q 375 -7 376 -4 q 342 -26 363 -24 q 304 -17 321 -29 l 281 0 q 228 69 246 26 q 188 154 215 99 q 133 274 157 213 q 90 407 110 335 q 69 536 71 482 q 85 650 68 593 q 150 765 103 713 q 267 853 196 818 q 390 894 335 886 q 478 896 446 901 q 560 858 513 889 q 656 764 607 828 q 719 646 704 700 q 736 531 735 594 q 738 422 739 471 q 722 289 738 369 q 672 160 706 200 q 643 107 653 135 q 575 29 624 56 q 522 1 540 10 q 439 -4 493 -10 q 393 -1 401 -1 q 378 -1 386 -1 z "},"1":{"ha":454,"x_min":69,"x_max":386,"o":"m 151 774 q 143 767 151 774 q 115 763 135 761 q 81 781 94 765 q 69 818 68 797 l 72 836 q 121 907 76 879 q 172 935 150 926 q 186 940 183 938 q 226 956 210 957 q 252 943 242 956 q 268 916 263 931 q 276 889 274 901 l 279 876 q 282 778 282 840 q 283 678 283 717 q 293 569 285 640 q 311 456 303 499 q 326 356 319 410 q 336 269 332 301 q 346 206 339 239 q 364 129 354 169 q 378 67 372 89 q 385 26 383 40 l 385 18 q 371 -18 385 -3 q 337 -34 357 -33 q 301 -20 317 -35 q 285 14 286 -6 l 285 24 q 281 43 285 28 q 265 107 275 67 q 249 183 257 149 q 236 258 240 222 q 226 343 233 290 q 213 438 221 394 q 194 557 204 482 q 183 675 185 633 q 182 776 183 715 q 181 828 182 804 q 175 824 178 825 q 171 821 172 822 l 169 807 q 151 774 167 786 z "},"2":{"ha":721,"x_min":72,"x_max":646,"o":"m 136 617 q 126 614 136 617 q 98 619 117 610 q 72 647 79 628 q 74 685 65 667 l 94 731 q 154 818 119 783 q 186 860 178 842 q 265 921 208 904 q 344 932 306 932 q 431 918 385 933 q 532 860 479 904 q 614 744 589 814 q 643 654 633 688 q 644 572 658 606 q 624 525 638 554 q 582 458 608 492 q 510 383 557 422 q 419 318 464 344 q 335 263 382 296 q 263 208 289 231 q 229 181 246 194 q 265 179 246 181 q 393 178 344 178 q 492 174 444 176 q 543 169 535 169 l 554 169 q 589 155 574 169 q 603 120 604 140 q 588 85 603 100 q 553 69 574 69 l 543 69 q 483 74 531 69 q 392 78 440 76 q 263 79 343 78 q 149 86 182 82 q 128 93 140 88 q 101 110 117 99 q 83 138 86 121 q 88 178 79 154 q 139 235 100 203 q 199 285 169 260 q 277 344 228 310 q 369 404 326 379 q 444 460 406 426 q 503 517 483 492 q 533 567 522 543 q 551 608 546 593 q 549 625 551 614 q 519 711 539 656 q 469 782 504 754 q 401 824 431 814 q 346 832 369 832 q 292 825 319 832 q 276 815 279 821 q 225 747 260 782 q 186 688 203 725 l 165 643 q 136 617 156 625 z "},"3":{"ha":757,"x_min":69,"x_max":688,"o":"m 564 449 q 568 442 567 444 q 615 368 588 407 q 656 265 656 314 q 624 172 654 221 q 574 96 600 135 q 482 22 539 47 q 381 1 428 0 q 276 29 333 3 q 189 106 211 58 q 169 181 171 144 q 168 235 168 207 l 168 260 q 183 295 168 281 q 218 310 197 310 q 253 295 239 310 q 268 260 268 281 l 268 235 q 269 185 268 210 q 279 147 269 169 q 317 121 286 135 q 383 101 356 103 q 443 114 410 100 q 492 153 474 128 q 539 225 517 190 q 556 267 554 250 q 535 308 556 282 q 481 394 503 353 q 454 426 471 411 q 433 443 446 435 q 397 450 414 446 q 332 469 353 461 q 324 471 329 469 q 310 483 319 472 q 299 514 300 493 q 303 554 296 539 q 322 573 310 569 q 347 576 335 576 q 369 574 360 576 l 379 569 q 467 540 421 567 q 499 540 482 540 q 558 553 539 542 q 579 592 569 558 q 588 668 592 638 q 557 717 585 692 q 476 778 521 750 q 381 811 435 801 q 321 815 336 818 q 267 793 299 806 q 243 778 250 788 q 192 710 226 751 l 158 669 q 124 652 144 654 q 88 663 103 650 q 70 696 72 675 q 81 733 68 717 l 114 774 q 160 833 146 811 q 232 888 185 869 q 282 907 263 899 q 396 910 318 922 q 528 863 471 897 q 625 790 581 831 q 686 682 679 740 q 675 565 693 631 q 606 464 654 489 q 564 449 588 454 z "},"4":{"ha":663,"x_min":71,"x_max":592,"o":"m 464 369 q 463 399 463 385 q 458 574 456 482 q 461 706 461 663 q 460 714 461 708 q 457 710 458 711 q 399 621 418 657 q 324 501 376 576 q 228 379 271 429 q 193 333 206 354 q 253 346 221 340 q 357 360 306 357 q 429 367 401 363 q 464 369 447 368 m 564 372 q 590 342 585 361 q 590 309 596 325 q 569 283 583 293 q 571 251 569 268 q 567 117 574 176 l 560 61 q 540 28 557 40 q 503 17 524 15 q 470 36 483 19 q 460 72 457 53 l 467 129 q 471 249 474 181 q 469 269 471 258 q 443 267 457 269 q 363 260 411 263 q 272 249 319 258 q 190 228 225 239 q 132 214 149 215 q 80 240 96 210 q 71 293 64 271 q 89 346 76 310 q 153 446 104 392 q 242 560 192 492 q 310 665 292 628 q 378 771 332 710 q 387 782 379 772 q 397 794 394 792 q 405 806 399 797 q 414 817 411 814 q 423 825 417 819 q 433 833 429 831 q 443 840 438 836 q 455 847 449 844 q 468 850 461 849 q 525 837 501 858 q 554 788 549 815 q 561 708 560 757 q 558 571 561 663 q 561 406 556 483 q 564 372 563 389 z "},"5":{"ha":668,"x_min":69,"x_max":597,"o":"m 69 701 q 71 801 68 756 q 83 883 74 851 q 119 943 96 926 q 159 958 138 956 q 194 957 181 960 q 301 943 228 954 q 431 919 374 932 q 529 894 489 908 l 565 883 q 594 858 585 876 q 597 819 603 839 q 572 791 590 800 q 533 788 553 782 l 497 800 q 411 822 464 811 q 286 843 357 833 q 186 857 215 854 l 179 857 q 179 854 179 856 q 171 796 172 833 q 169 699 168 754 q 169 588 171 640 q 169 576 169 583 q 193 592 181 583 q 306 631 254 628 q 365 631 350 633 q 387 622 376 628 q 403 613 397 617 q 420 598 408 608 q 439 581 432 588 q 508 474 494 533 q 525 372 519 426 q 529 260 531 317 q 525 163 528 207 q 510 83 522 113 q 438 21 492 44 q 339 1 393 1 q 254 13 285 0 q 196 46 229 24 q 140 110 157 74 q 119 188 125 142 q 115 250 115 229 l 115 268 q 130 303 115 288 q 165 318 144 318 q 200 303 185 318 q 215 268 215 288 l 215 250 q 219 200 215 235 q 231 153 222 169 q 253 128 236 140 q 293 104 278 111 q 338 100 304 100 q 399 113 372 101 q 418 125 413 119 q 425 168 424 138 q 429 263 428 210 q 425 362 429 313 q 411 451 421 411 q 375 504 406 479 q 340 532 351 524 q 311 532 329 532 q 246 506 286 531 q 176 463 196 476 q 152 451 167 456 q 118 452 138 447 q 86 475 99 457 q 74 507 76 489 q 69 592 68 538 q 69 701 71 640 z "},"6":{"ha":799,"x_min":71,"x_max":728,"o":"m 181 396 q 214 301 192 346 q 269 215 239 250 q 318 175 299 185 q 369 160 340 165 q 419 156 400 154 q 475 157 446 156 q 528 163 503 158 q 572 176 549 165 q 604 200 590 183 q 629 243 621 219 q 618 300 633 258 q 578 372 600 349 q 542 401 554 396 q 506 411 531 408 q 443 413 479 415 q 363 407 401 408 q 307 403 328 406 q 263 397 283 401 q 219 393 238 393 q 181 396 204 392 m 171 499 q 215 493 204 492 q 247 496 228 493 q 296 503 269 500 q 360 507 321 506 q 435 511 394 508 q 519 510 481 515 q 586 492 560 504 q 650 442 614 479 q 713 335 686 403 q 724 211 740 260 q 682 138 710 171 q 611 83 653 101 q 542 64 576 68 q 479 58 513 60 q 424 56 450 57 q 351 61 393 54 q 275 85 310 69 q 196 149 238 103 q 124 257 156 193 q 78 393 93 321 q 71 442 74 418 q 74 528 67 488 q 108 635 85 583 q 143 721 129 678 q 181 813 158 772 q 251 893 206 858 q 344 942 297 926 q 460 953 392 956 q 583 922 529 950 q 663 869 635 897 q 700 833 686 847 l 714 819 q 728 783 728 804 q 713 749 728 763 q 678 735 699 735 q 642 750 657 735 l 629 764 q 593 799 615 776 q 539 833 576 814 q 456 853 504 850 q 374 846 404 854 q 313 813 342 836 q 268 765 283 792 q 238 690 251 732 q 199 593 222 642 q 172 510 181 553 q 171 499 171 504 z "},"7":{"ha":736,"x_min":69,"x_max":668,"o":"m 91 803 q 82 809 91 803 q 70 835 74 815 q 78 873 67 856 q 111 894 90 890 l 143 900 q 214 909 178 906 q 318 914 250 913 q 443 915 383 914 q 551 914 504 917 q 617 908 597 911 q 655 883 640 901 q 668 839 669 864 q 664 822 667 831 q 658 809 661 814 q 650 797 656 804 q 642 788 644 790 q 631 779 639 786 q 622 771 624 772 q 594 729 603 754 q 574 653 582 696 q 544 540 561 599 q 508 411 529 483 q 485 301 489 343 q 469 200 479 254 q 444 104 460 140 q 431 64 433 78 l 426 49 q 403 19 421 29 q 365 14 385 8 q 334 38 344 19 q 329 75 324 56 l 333 90 q 353 143 339 110 q 371 215 364 168 q 385 313 381 268 q 413 439 390 363 q 449 568 432 511 q 475 674 464 622 q 500 763 486 722 q 528 815 510 792 q 444 815 492 817 q 318 814 385 814 q 223 810 254 813 q 161 801 192 807 l 128 796 q 91 803 108 792 z "},"8":{"ha":711,"x_min":74,"x_max":643,"o":"m 417 421 q 387 402 406 406 q 353 408 368 399 l 304 436 q 296 442 300 439 q 253 429 285 440 q 215 411 224 418 q 206 394 210 406 q 176 328 196 367 q 169 303 168 310 q 188 254 176 281 q 231 218 194 240 q 314 186 271 193 q 411 183 361 179 q 493 200 460 186 q 524 221 518 210 q 533 250 533 238 q 526 297 533 268 q 503 338 522 319 q 457 386 471 369 l 444 401 q 436 417 440 407 q 417 421 426 418 m 329 540 q 349 539 339 540 q 372 536 361 538 q 419 524 400 532 q 471 513 433 518 q 501 510 488 510 q 531 513 517 510 q 542 515 536 514 q 543 528 543 521 q 542 586 543 549 q 535 669 540 625 q 519 735 531 708 q 494 767 510 756 q 446 801 467 786 q 394 813 435 808 q 329 810 351 817 q 315 803 318 806 q 306 763 308 786 q 300 692 300 732 q 300 617 299 650 q 313 563 301 590 q 324 546 315 554 q 329 540 326 543 m 221 524 q 200 613 203 568 q 200 694 199 650 q 206 776 201 742 q 225 846 213 817 q 297 904 244 886 q 404 913 340 918 q 504 883 471 906 q 553 849 525 868 q 611 775 590 821 q 635 679 629 733 q 642 592 639 632 q 643 525 643 550 q 626 463 642 489 q 564 418 610 432 q 572 410 568 414 q 624 321 613 371 q 633 247 635 279 q 613 174 632 211 q 531 107 589 131 q 418 83 482 88 q 299 88 357 79 q 178 132 236 96 q 96 214 115 171 q 74 275 82 246 q 88 374 61 319 q 111 426 104 406 q 149 485 124 463 q 221 524 171 504 z "},"9":{"ha":718,"x_min":76,"x_max":649,"o":"m 533 503 q 517 565 526 532 q 461 715 488 660 q 414 783 438 764 q 365 808 390 803 q 314 807 340 814 q 257 776 286 800 q 204 726 225 751 q 172 665 185 703 q 182 594 163 636 q 218 513 208 536 q 257 478 225 501 q 301 450 289 456 q 342 450 315 450 q 388 453 371 450 q 442 463 407 457 q 465 469 458 465 q 531 501 489 489 q 533 503 531 501 m 642 474 q 643 463 643 468 q 647 426 646 443 q 642 299 653 361 q 592 175 631 232 q 494 72 556 119 q 382 11 432 24 q 297 -1 338 0 q 222 -3 263 -3 l 183 -1 q 148 14 163 -1 q 133 49 133 29 q 149 84 133 69 q 185 99 164 99 l 224 97 q 293 99 261 97 q 358 108 322 100 q 433 151 388 115 q 508 231 481 188 q 543 315 535 269 q 549 403 550 358 l 533 396 q 458 364 507 372 q 404 354 424 358 q 344 350 381 351 q 288 351 307 349 q 256 362 272 354 q 231 374 239 369 q 199 397 224 379 q 126 475 140 439 q 90 554 117 496 q 78 696 56 631 q 126 789 96 753 q 196 856 154 824 q 288 904 240 890 q 386 907 338 918 q 478 861 435 896 q 551 758 518 826 q 613 593 581 696 q 635 506 626 546 q 642 474 643 490 z "}," ":{"ha":625,"x_min":0,"x_max":0,"o":""},"!":{"ha":281,"x_min":69,"x_max":213,"o":"m 167 210 q 160 202 167 210 q 132 194 153 194 q 97 210 111 194 q 82 244 82 225 l 82 283 q 78 358 82 318 q 69 439 72 404 q 72 515 68 476 q 76 578 75 549 q 82 654 78 611 q 90 731 86 697 q 94 768 94 758 q 93 792 93 783 l 92 801 q 103 837 90 821 q 137 855 117 853 q 173 844 157 857 q 192 810 189 831 l 192 801 q 194 775 193 792 q 190 717 196 754 q 181 645 185 685 q 176 575 178 606 q 172 504 175 542 q 169 444 168 474 q 176 371 172 413 q 182 283 182 324 l 182 244 q 167 210 182 225 m 108 46 q 108 56 108 46 q 122 81 108 67 q 158 96 136 96 q 193 82 179 96 l 197 76 q 211 42 211 63 q 197 6 211 21 q 163 -8 183 -8 q 126 7 142 -8 l 122 11 q 108 46 108 25 z "},"\"":{"ha":508,"x_min":71,"x_max":440,"o":"m 373 505 q 363 502 373 505 q 335 510 353 500 q 312 541 317 521 q 317 579 307 561 l 328 596 q 333 617 332 604 q 338 675 336 639 q 339 738 339 711 q 336 772 339 760 l 332 790 q 339 827 328 810 q 370 849 350 844 q 408 843 390 854 q 429 813 425 832 l 433 794 q 439 738 439 771 q 438 670 439 708 q 433 608 436 632 q 414 546 431 572 l 403 528 q 373 505 393 510 m 184 557 q 174 553 184 557 q 146 559 164 550 q 121 588 128 568 q 124 626 114 608 l 131 640 q 133 661 132 646 q 138 717 135 689 q 154 782 142 749 q 160 806 160 796 q 149 817 156 811 q 113 844 125 838 l 94 854 q 71 885 76 865 q 76 923 65 906 q 106 946 86 940 q 144 942 126 951 l 161 932 q 213 893 183 919 q 260 815 257 857 q 247 746 261 782 q 236 706 239 725 q 233 656 233 681 q 219 596 232 619 l 213 582 q 184 557 204 564 z "},"#":{"ha":832,"x_min":69,"x_max":764,"o":"m 615 373 q 622 365 615 373 q 628 337 629 357 q 610 303 626 317 q 575 290 594 289 l 551 292 q 550 283 551 288 q 533 144 535 201 q 539 60 532 92 l 547 22 q 542 -15 553 3 q 510 -37 531 -33 q 473 -31 490 -42 q 450 0 456 -21 l 442 38 q 433 149 431 81 q 451 297 436 210 q 407 300 431 299 q 310 306 356 303 q 310 299 310 303 q 308 189 308 232 l 308 22 q 294 -12 308 3 q 258 -28 279 -28 q 223 -12 238 -28 q 208 22 208 3 l 208 189 q 210 300 208 232 q 210 313 210 307 q 178 314 185 314 q 129 313 150 310 l 114 315 q 80 333 93 317 q 69 370 67 350 q 89 403 72 390 q 125 414 106 417 l 140 413 q 167 413 150 411 q 215 413 186 415 q 217 428 217 421 q 240 533 222 476 q 210 544 224 533 q 192 569 196 554 q 197 608 186 590 q 226 632 207 626 l 271 643 q 281 646 275 644 q 286 664 283 656 q 301 738 299 699 q 304 788 306 776 l 303 806 q 313 842 300 825 q 347 860 326 858 q 383 849 367 863 q 401 815 400 836 l 404 799 q 401 728 406 776 q 388 654 399 690 q 389 654 389 654 q 531 647 446 651 q 535 683 533 667 q 539 729 539 714 l 538 750 q 551 786 536 771 q 585 803 565 801 q 621 790 606 804 q 638 756 636 775 l 639 735 q 635 669 640 708 q 632 644 633 658 q 660 644 649 644 q 696 647 688 646 l 704 649 q 742 640 725 653 q 763 608 758 628 q 754 571 767 588 q 722 550 742 554 l 714 549 q 663 544 701 546 q 619 544 646 544 q 592 444 611 501 q 575 390 582 418 l 581 390 q 615 373 601 389 m 517 549 q 385 554 438 551 q 354 554 369 554 q 344 525 350 540 q 317 417 322 465 q 315 406 317 411 q 411 400 361 401 q 474 396 446 399 q 497 476 483 438 q 517 549 510 515 z "},"&":{"ha":917,"x_min":74,"x_max":849,"o":"m 392 338 q 388 335 389 336 q 299 308 347 317 q 257 294 269 303 q 200 253 238 281 q 171 225 176 235 q 172 183 168 214 q 185 150 178 157 q 214 131 197 138 q 274 113 233 122 q 365 104 311 101 q 451 131 413 107 q 488 160 479 149 q 499 190 492 172 q 488 204 493 197 q 392 338 440 261 m 419 490 q 474 564 454 529 q 521 658 497 608 q 533 692 529 679 q 517 706 526 697 q 471 719 500 718 q 442 719 451 721 q 403 696 428 711 q 382 668 388 686 q 375 610 374 638 q 401 529 376 583 q 419 490 408 511 m 542 297 q 544 308 543 304 q 557 364 551 340 q 564 399 563 389 q 593 435 569 422 q 636 442 617 447 q 679 425 650 439 l 704 414 q 731 386 724 406 q 731 348 739 367 q 702 322 722 329 q 664 322 682 314 l 651 328 q 642 285 647 308 q 617 213 633 254 q 615 210 617 211 q 654 174 636 190 q 750 90 704 132 q 817 26 796 49 l 836 6 q 848 -31 849 -10 q 832 -65 847 -51 q 796 -78 817 -79 q 761 -62 775 -76 l 742 -40 q 682 17 725 -22 q 590 97 638 57 q 575 111 582 104 q 504 46 557 79 q 369 4 444 8 q 249 15 301 1 q 174 39 200 28 q 117 76 143 53 q 74 167 85 106 q 76 258 64 224 q 140 333 90 296 q 200 376 179 363 q 282 407 231 397 q 342 424 314 413 q 310 488 324 458 q 275 606 278 560 q 286 694 274 649 q 350 781 301 750 q 390 806 382 800 q 433 821 410 819 q 476 819 457 822 q 576 786 535 815 q 629 726 617 757 q 636 698 635 711 q 632 667 638 685 q 624 644 626 650 q 611 617 621 639 q 561 517 588 564 q 482 411 533 465 q 471 400 478 406 q 472 397 471 399 q 474 396 474 396 q 542 297 507 342 z "},"'":{"ha":350,"x_min":71,"x_max":279,"o":"m 142 525 q 133 520 142 525 q 104 522 124 515 q 75 546 85 528 q 72 583 65 564 l 75 597 q 86 642 79 607 q 110 713 96 682 q 157 783 125 743 q 181 817 176 807 q 181 825 181 822 l 179 832 q 184 870 174 851 q 214 894 194 889 q 252 890 233 900 q 276 860 271 879 l 278 850 q 278 797 285 829 q 235 721 272 765 q 200 670 210 690 q 183 619 190 650 q 171 567 175 582 l 167 554 q 142 525 161 535 z "},"(":{"ha":518,"x_min":69,"x_max":450,"o":"m 322 979 q 332 983 322 979 q 360 978 342 986 q 387 951 379 971 q 386 913 394 932 l 383 904 q 326 826 376 890 q 261 710 285 772 q 210 560 233 640 q 176 375 186 481 q 169 201 168 267 q 206 79 171 146 q 263 -25 244 4 q 308 -76 275 -47 q 368 -131 353 -112 q 385 -146 375 -139 q 417 -167 403 -157 l 429 -175 q 449 -208 446 -187 q 440 -246 453 -229 q 408 -265 428 -262 q 371 -257 388 -268 l 358 -247 q 332 -231 347 -240 q 290 -194 308 -215 q 244 -153 282 -183 q 176 -76 197 -112 q 117 33 158 -46 q 69 200 71 121 q 78 383 68 271 q 114 588 86 500 q 167 746 139 674 q 247 888 197 822 q 292 946 283 933 l 294 953 q 322 979 303 972 z "},")":{"ha":610,"x_min":71,"x_max":538,"o":"m 101 935 q 99 945 101 935 q 106 974 96 956 q 137 997 117 992 q 175 992 157 1003 l 226 963 q 344 874 283 931 q 443 736 411 814 q 501 573 474 667 q 538 425 528 479 q 526 275 549 363 q 490 139 507 196 q 433 17 472 78 q 368 -90 399 -39 q 293 -185 333 -153 q 232 -229 258 -211 q 136 -244 188 -258 l 107 -236 q 76 -212 88 -231 q 71 -175 65 -194 q 94 -145 76 -156 q 132 -139 113 -135 l 163 -147 q 176 -146 171 -150 q 231 -106 200 -131 q 282 -42 256 -86 q 349 69 313 14 q 394 168 379 119 q 429 299 410 221 q 439 408 446 367 q 405 545 431 457 q 351 697 379 633 q 278 800 328 754 q 176 876 224 849 l 125 906 q 101 935 107 915 z "},"+":{"ha":764,"x_min":69,"x_max":693,"o":"m 426 139 q 418 132 426 139 q 390 126 410 125 q 356 142 369 126 q 343 179 342 158 l 346 226 q 349 329 349 272 q 350 381 349 356 q 343 382 346 381 q 224 393 278 388 q 157 394 176 399 l 129 389 q 92 396 110 385 q 71 427 75 407 q 78 465 67 447 q 108 486 89 482 l 136 492 q 233 493 171 500 q 350 482 286 488 l 350 678 q 365 713 350 699 q 399 728 379 728 q 435 713 419 728 q 450 678 450 699 l 450 478 q 536 490 488 481 q 604 506 583 497 l 628 514 q 666 513 647 522 q 692 485 685 504 q 691 447 700 465 q 663 421 682 428 l 638 411 q 554 392 610 401 q 457 379 500 382 q 450 378 454 378 q 449 329 449 353 q 446 221 449 269 l 443 172 q 426 139 442 153 z "},",":{"ha":389,"x_min":69,"x_max":321,"o":"m 204 138 q 206 148 204 138 q 223 171 207 158 q 260 181 239 183 q 293 163 281 178 l 301 151 q 321 92 321 126 q 292 18 321 56 q 267 -17 275 -3 q 260 -33 261 -25 q 251 -69 257 -53 q 179 -125 240 -112 q 128 -131 143 -132 l 118 -131 q 83 -115 97 -131 q 69 -79 69 -100 q 85 -44 69 -58 q 121 -31 100 -31 l 131 -31 q 160 -26 138 -31 q 161 -18 160 -22 q 181 35 165 10 q 213 81 193 56 q 221 92 218 88 l 214 101 q 204 138 201 117 z "},"-":{"ha":500,"x_min":72,"x_max":431,"o":"m 98 311 q 89 315 98 311 q 72 339 79 319 q 74 377 65 358 q 103 403 83 396 l 115 408 q 176 425 132 414 q 257 439 221 435 q 315 442 292 442 l 336 444 q 381 449 360 451 l 389 447 q 422 426 410 443 q 431 390 433 410 q 410 357 428 369 q 374 347 393 344 l 367 349 q 319 342 349 343 q 265 339 299 342 q 199 328 236 336 q 150 314 161 318 l 136 310 q 98 311 117 303 z "},".":{"ha":244,"x_min":71,"x_max":175,"o":"m 103 158 q 113 162 103 158 q 142 160 122 167 q 171 135 161 154 q 174 97 181 117 l 167 76 q 142 48 160 57 q 104 45 124 39 q 75 70 85 51 q 72 108 65 89 l 79 129 q 103 158 85 149 z "},"/":{"ha":615,"x_min":71,"x_max":546,"o":"m 106 -2 q 96 0 106 -2 q 76 21 86 3 q 71 59 65 39 q 94 89 76 79 l 111 99 q 138 128 119 104 q 189 206 161 160 q 240 319 215 249 q 279 450 265 392 q 333 581 296 515 q 379 696 364 635 q 415 810 396 767 q 438 867 431 847 q 446 892 443 883 l 447 903 q 469 935 451 924 q 506 942 486 946 q 538 922 526 939 q 546 883 550 904 l 543 871 q 532 833 540 856 q 507 769 524 811 q 476 672 492 735 q 419 532 458 599 q 376 426 389 478 q 335 288 361 364 q 275 154 307 206 q 218 68 244 104 q 161 13 188 28 l 144 3 q 106 -2 126 -7 z "},":":{"ha":304,"x_min":69,"x_max":236,"o":"m 132 94 q 132 105 132 94 q 147 130 132 115 q 182 144 161 144 q 217 131 203 144 l 221 125 q 236 90 236 111 q 222 55 236 69 q 186 40 207 40 q 150 56 165 40 l 146 60 q 132 94 132 74 m 69 625 q 69 635 69 625 q 84 660 69 646 q 119 675 99 675 q 154 660 140 675 l 158 656 q 174 621 174 642 q 159 585 174 600 q 124 571 144 571 q 88 585 103 571 l 83 589 q 69 625 69 604 z "},";":{"ha":356,"x_min":69,"x_max":288,"o":"m 99 108 q 96 118 99 108 q 103 145 93 128 q 134 168 114 163 q 172 163 154 174 l 189 153 q 240 110 213 140 q 283 43 272 76 q 287 19 286 31 q 284 -3 288 8 q 276 -22 281 -14 q 264 -40 272 -31 q 251 -56 256 -50 q 236 -71 246 -61 q 193 -121 200 -108 l 183 -139 q 153 -162 174 -157 q 115 -158 133 -168 q 92 -128 97 -149 q 96 -90 86 -108 l 106 -72 q 165 -1 119 -49 q 183 21 178 11 q 168 40 178 31 q 139 67 150 61 l 122 76 q 99 108 104 88 m 70 619 q 72 630 70 619 q 90 652 74 640 q 128 660 107 664 q 160 639 149 657 l 176 617 q 184 579 188 600 q 164 547 181 558 q 126 538 147 535 q 94 560 106 542 l 78 582 q 70 619 67 599 z "},"=":{"ha":797,"x_min":69,"x_max":728,"o":"m 238 265 q 228 270 238 265 q 213 294 219 275 q 217 333 207 314 q 246 357 226 351 l 279 368 q 363 386 315 379 q 457 396 407 392 q 556 401 507 400 q 597 406 585 403 l 607 410 q 646 411 626 418 q 674 385 665 404 q 674 347 682 367 q 649 319 667 328 l 638 314 q 558 303 617 304 q 465 297 513 300 q 376 288 418 293 q 308 272 338 282 l 275 263 q 238 265 256 256 m 79 572 q 73 581 79 572 q 69 609 67 589 q 90 642 72 629 q 126 651 107 654 l 154 647 q 219 644 178 643 q 288 646 265 644 q 392 654 310 647 q 519 667 476 663 q 581 675 563 672 q 649 672 606 678 l 685 667 q 718 647 706 664 q 728 610 731 631 q 708 578 725 590 q 671 568 692 565 l 635 574 q 594 575 606 578 q 531 569 575 574 q 402 556 486 564 q 293 546 318 547 q 221 544 267 544 q 140 549 172 543 l 113 553 q 79 572 92 556 z "},"?":{"ha":561,"x_min":69,"x_max":492,"o":"m 271 88 q 271 98 271 88 q 285 123 271 108 q 321 138 300 138 q 356 124 342 138 l 361 118 q 375 83 375 104 q 360 48 375 63 q 325 33 346 33 q 290 49 304 33 l 286 53 q 271 88 271 67 m 155 538 q 148 531 155 538 q 119 524 140 524 q 84 538 99 524 q 69 574 69 553 l 69 596 q 71 643 69 619 q 97 736 72 674 q 151 835 121 797 q 251 893 186 876 q 378 892 315 911 q 468 821 443 869 q 490 728 488 781 q 489 646 493 681 q 436 564 481 596 q 394 531 410 544 q 383 515 386 522 q 376 471 379 497 q 374 433 374 443 l 374 394 q 358 360 374 375 q 323 344 343 344 q 288 360 303 344 q 274 394 274 375 l 274 433 q 276 482 274 449 q 288 542 281 517 q 326 604 297 576 q 378 644 347 622 q 390 660 389 653 q 392 722 393 683 q 379 778 389 756 q 347 796 374 788 q 278 797 314 807 q 228 771 242 788 q 190 700 208 747 q 171 638 171 653 q 169 596 169 617 l 169 574 q 155 538 169 553 z "},"@":{"ha":1081,"x_min":69,"x_max":1011,"o":"m 814 529 q 821 492 825 513 q 799 460 817 472 l 750 428 q 693 379 708 400 q 669 322 679 358 q 668 263 661 290 q 676 232 672 247 q 696 179 703 211 l 694 175 q 719 138 704 149 q 732 129 726 133 q 742 135 736 132 q 793 168 761 146 q 849 221 821 188 q 892 299 875 253 q 911 397 908 344 q 904 508 914 451 q 867 608 894 563 q 817 681 835 660 q 744 731 803 699 q 640 767 688 763 q 529 765 588 771 q 422 742 474 760 q 340 706 371 724 q 289 657 313 689 q 219 565 258 615 q 179 488 188 526 q 169 389 169 442 q 178 279 169 335 q 208 185 185 228 q 246 113 235 135 q 297 57 254 99 q 369 4 339 17 q 429 -22 410 -12 q 488 -40 444 -29 q 557 -60 539 -53 q 603 -69 571 -64 q 671 -75 636 -75 q 724 -69 703 -76 q 792 -53 756 -58 l 824 -47 q 861 -57 844 -44 q 881 -90 878 -69 q 872 -126 885 -110 q 839 -146 860 -143 l 807 -151 q 754 -164 779 -156 q 671 -175 718 -176 q 586 -168 626 -175 q 525 -154 546 -161 q 464 -137 510 -149 q 388 -112 411 -124 q 331 -87 369 -104 q 228 -15 283 -68 q 158 65 174 38 q 119 138 146 88 q 78 264 89 196 q 69 390 69 328 q 82 508 71 453 q 140 628 94 569 q 208 715 179 675 q 288 790 243 764 q 389 836 329 815 q 519 865 451 858 q 649 867 586 872 q 793 818 717 860 q 893 746 867 776 q 951 660 917 718 q 1003 525 990 597 q 1011 392 1014 457 q 986 264 1007 325 q 926 157 964 203 q 850 86 890 113 q 792 49 815 61 q 743 28 763 32 q 725 26 736 24 q 710 29 714 29 q 697 34 706 29 q 685 40 688 39 q 674 48 682 42 q 664 56 665 54 q 622 97 639 72 q 569 89 597 88 q 506 101 531 90 q 446 138 483 111 q 383 243 396 174 q 375 386 372 300 q 408 524 379 478 q 513 597 439 574 q 644 610 579 619 q 750 575 707 600 l 783 554 q 793 547 789 551 q 814 529 806 542 m 585 190 q 571 238 578 214 q 572 349 557 290 q 613 438 586 401 q 676 499 633 468 q 629 511 657 507 q 543 501 589 517 q 493 471 504 489 q 475 382 478 447 q 481 263 472 308 q 504 219 488 231 q 546 193 533 199 q 574 189 553 189 q 585 190 581 189 z "},"A":{"ha":854,"x_min":69,"x_max":783,"o":"m 130 9 q 120 7 130 9 q 92 15 110 4 q 71 47 75 26 q 78 85 67 68 l 94 113 q 140 193 111 138 q 179 308 168 244 q 221 501 192 382 q 264 675 250 621 q 300 771 279 735 q 342 813 314 797 q 401 814 369 828 q 435 789 421 806 q 455 758 449 772 q 469 718 461 744 q 510 608 490 661 q 565 428 531 553 q 624 265 599 311 q 688 144 651 215 q 742 50 722 79 q 775 1 767 17 l 781 -10 q 782 -47 789 -28 q 757 -76 775 -67 q 719 -78 739 -85 q 690 -54 700 -72 l 685 -43 q 661 -8 681 -35 q 599 99 636 26 q 553 186 574 147 q 535 188 543 185 l 503 194 q 426 206 472 200 q 331 215 379 213 q 263 218 283 218 l 260 218 q 229 147 247 181 q 179 58 197 88 l 161 31 q 130 9 150 14 m 282 318 q 338 315 304 317 q 439 306 389 311 q 501 296 475 301 q 469 401 488 339 q 417 574 436 521 q 375 686 396 628 q 374 692 375 688 q 361 650 367 674 q 318 478 347 596 q 282 318 294 382 z "},"B":{"ha":801,"x_min":71,"x_max":732,"o":"m 183 490 q 253 488 210 489 q 381 482 325 485 l 382 482 q 385 482 383 482 q 454 504 421 492 q 532 543 496 521 q 611 617 593 582 q 621 663 625 644 q 612 674 619 667 q 585 698 604 682 q 543 729 567 714 q 401 794 463 781 q 285 808 336 808 q 217 799 236 807 q 188 779 197 789 q 179 756 182 772 q 171 690 175 722 q 171 594 168 661 q 183 490 174 544 m 254 -11 q 211 8 228 -11 l 208 10 q 184 40 190 19 q 188 78 178 60 q 196 89 190 83 l 193 114 q 150 265 185 188 q 100 406 118 339 q 93 436 96 421 q 72 590 75 515 q 72 701 68 664 q 81 769 75 735 q 114 847 88 818 q 175 889 138 872 q 283 908 214 907 q 422 892 347 908 q 597 813 503 875 q 678 752 650 779 q 717 690 707 725 q 700 571 732 635 q 585 458 669 513 q 683 418 654 444 q 731 331 725 381 q 724 235 736 290 q 660 114 711 175 q 519 8 610 56 q 336 -29 422 -43 q 254 -11 283 -21 m 389 381 q 236 371 304 363 q 215 374 226 372 q 242 306 226 340 q 292 125 282 213 l 297 81 q 353 69 318 75 q 474 96 406 61 q 583 179 546 135 q 626 254 619 219 q 632 318 635 294 q 617 343 629 332 q 605 349 615 346 q 572 358 594 353 q 521 367 549 364 q 457 374 486 371 q 389 381 418 378 z "},"C":{"ha":844,"x_min":69,"x_max":776,"o":"m 678 590 q 649 610 660 594 q 639 644 638 625 q 631 654 636 649 q 551 715 610 678 q 454 761 496 751 q 350 768 411 772 q 267 744 297 765 q 215 678 236 725 q 181 563 192 624 q 169 453 168 500 q 201 307 171 407 q 263 153 231 207 q 329 83 292 104 q 422 68 365 63 q 560 101 489 75 q 649 185 619 124 q 675 254 672 233 l 669 272 q 672 310 663 292 q 700 336 681 329 q 738 333 719 343 q 764 304 757 324 l 771 281 q 775 253 775 268 q 774 228 775 239 q 765 199 772 218 q 753 172 757 179 q 739 140 750 164 q 594 7 692 43 q 432 -31 511 -24 q 281 -4 344 -39 q 176 101 219 29 q 104 279 138 167 q 69 450 71 392 q 82 581 68 508 q 125 719 96 654 q 211 828 157 792 q 344 868 264 864 q 476 858 419 872 q 607 799 536 846 q 706 721 676 754 q 713 712 707 718 q 723 701 719 706 q 732 690 726 697 q 739 676 738 682 q 742 658 740 669 q 740 638 744 647 l 738 628 q 715 596 733 607 q 678 590 697 585 z "},"D":{"ha":910,"x_min":71,"x_max":842,"o":"m 360 71 l 364 75 q 386 104 382 93 q 429 171 399 138 q 481 222 456 201 q 526 265 503 240 q 607 336 554 292 q 697 429 656 376 q 740 494 733 475 q 721 571 740 515 q 650 686 696 639 q 569 753 600 736 q 468 778 540 768 q 353 778 394 788 q 264 751 306 767 q 192 715 224 736 q 172 696 174 704 q 171 656 168 678 q 200 550 174 629 q 247 390 228 464 q 293 239 265 319 q 344 107 322 157 l 360 71 m 331 -14 q 298 -10 314 -18 q 275 14 282 -1 l 253 67 q 199 206 229 119 q 150 365 168 292 q 106 518 132 436 q 71 643 76 607 q 74 717 67 682 q 138 799 83 764 q 229 844 179 826 q 331 875 276 863 q 481 878 389 889 q 617 840 572 865 q 719 757 660 817 q 815 604 783 694 q 831 553 826 571 q 840 509 836 536 q 838 468 844 482 q 775 368 826 432 q 672 260 728 307 q 597 194 622 218 q 546 146 571 167 q 503 104 525 129 q 479 69 485 85 q 432 3 467 36 l 407 -22 q 371 -35 392 -36 q 336 -19 350 -35 q 331 -14 333 -18 z "},"E":{"ha":917,"x_min":71,"x_max":849,"o":"m 656 483 q 665 477 656 483 q 679 453 674 472 q 674 415 685 433 q 644 392 664 397 l 633 389 q 558 379 619 385 q 414 374 500 374 q 333 375 368 374 q 333 374 333 375 q 333 225 332 282 q 338 104 333 168 q 343 29 340 47 q 349 29 346 29 q 421 38 368 29 q 538 46 481 46 q 640 47 593 44 q 718 58 683 50 q 779 69 761 68 l 793 71 q 830 58 814 72 q 848 24 846 44 q 836 -12 850 4 q 801 -29 822 -28 l 788 -31 q 740 -39 776 -32 q 646 -53 699 -49 q 538 -54 596 -56 q 435 -62 488 -54 q 349 -71 375 -71 q 285 -54 311 -71 q 246 6 256 -35 q 238 99 240 29 q 233 224 233 164 q 233 374 232 282 q 233 381 233 378 q 183 383 206 383 q 154 383 163 385 l 143 376 q 105 373 125 367 q 75 397 85 379 q 72 435 65 415 q 96 465 78 456 l 108 472 q 186 483 133 485 q 236 482 208 483 q 240 546 238 514 q 250 674 246 625 q 263 758 256 724 q 290 811 269 790 q 347 835 313 831 q 467 842 382 839 q 607 851 547 846 q 714 858 669 858 q 785 853 764 860 l 800 849 q 830 825 819 843 q 835 787 840 807 q 810 757 829 767 q 772 753 792 747 l 757 757 q 715 758 747 760 q 617 753 676 758 q 471 743 554 746 q 360 736 393 739 q 350 664 354 706 q 339 539 346 617 q 336 475 338 508 q 414 474 371 474 q 550 478 496 474 q 608 485 597 483 l 618 488 q 656 483 638 493 z "},"F":{"ha":861,"x_min":69,"x_max":792,"o":"m 92 287 q 84 293 92 287 q 71 318 75 299 q 78 356 67 338 q 108 378 89 374 l 150 386 q 153 386 151 386 q 128 539 139 458 q 124 681 114 640 q 168 767 135 721 q 271 835 207 818 q 385 857 321 849 q 536 871 447 865 q 672 875 625 878 q 738 871 722 874 l 750 869 q 782 849 769 865 q 791 812 794 832 q 771 779 788 792 q 733 771 754 767 l 721 772 q 669 775 711 774 q 543 772 626 778 q 399 758 458 767 q 296 739 340 750 q 249 707 267 731 q 221 656 226 676 q 226 553 215 635 q 250 414 236 479 q 373 447 315 435 q 454 463 431 460 q 490 461 476 465 q 522 428 513 454 q 524 385 532 403 l 518 375 q 490 351 510 357 q 451 353 469 344 q 442 360 446 356 q 394 350 422 356 q 279 318 340 338 q 272 315 275 317 q 303 208 285 267 q 343 63 336 104 l 350 24 q 340 -13 353 4 q 308 -34 328 -31 q 271 -25 288 -37 q 250 7 254 -12 l 244 46 q 207 179 239 81 q 175 289 189 238 q 171 288 172 289 l 129 279 q 92 287 110 275 z "},"G":{"ha":796,"x_min":69,"x_max":725,"o":"m 723 600 q 718 590 723 600 q 695 574 714 581 q 657 575 676 567 q 631 603 638 583 l 619 632 q 568 706 611 653 q 491 774 526 757 q 413 790 456 790 q 324 769 369 789 q 242 718 275 747 q 203 656 214 692 q 183 553 189 608 q 174 439 178 493 q 169 324 169 388 q 175 224 169 261 q 194 149 181 185 q 231 97 204 119 q 292 65 258 74 q 367 56 329 54 q 436 65 404 56 q 496 97 465 75 q 542 146 525 117 q 574 208 563 178 q 590 265 586 239 q 593 296 594 286 q 585 308 592 301 q 538 344 572 322 q 471 378 501 367 q 415 396 438 390 q 369 411 389 403 l 351 417 q 323 443 332 424 q 321 481 314 463 q 347 509 328 500 q 385 511 365 518 l 403 504 q 442 492 419 499 q 506 472 468 485 q 590 429 544 457 q 661 374 639 400 q 692 311 689 342 q 689 249 696 288 q 668 172 683 213 q 626 92 651 132 q 554 15 599 47 q 465 -29 511 -15 q 369 -44 421 -43 q 265 -32 318 -46 q 165 21 211 -17 q 100 115 119 60 q 76 208 83 161 q 69 324 69 254 q 74 447 69 390 q 83 563 78 501 q 107 683 90 628 q 175 792 126 747 q 282 860 219 832 q 413 890 347 889 q 534 864 478 890 q 646 769 590 838 q 713 667 699 704 l 724 638 q 723 600 732 619 z "},"H":{"ha":836,"x_min":71,"x_max":767,"o":"m 688 806 q 696 812 688 806 q 724 815 704 818 q 757 796 744 813 q 767 758 769 779 l 763 735 q 753 638 760 713 q 743 494 746 564 q 731 349 739 422 q 710 216 722 275 q 688 117 699 157 q 667 58 675 74 q 667 56 667 57 l 667 42 q 654 6 668 21 q 619 -11 640 -10 q 583 2 599 -12 q 567 38 568 17 l 567 51 q 576 100 565 76 q 590 144 581 110 q 613 235 601 181 q 632 360 624 290 q 638 418 635 389 q 593 396 618 408 q 501 361 558 378 q 389 329 446 344 q 294 303 333 314 q 236 285 268 294 q 236 264 238 274 q 233 150 236 210 q 228 49 229 90 q 226 -10 226 4 l 225 -22 q 208 -56 224 -42 q 171 -68 192 -69 q 137 -51 150 -67 q 125 -14 124 -35 l 126 -1 q 128 51 126 10 q 133 156 131 96 q 136 253 136 207 l 132 253 q 94 258 111 247 q 71 288 76 268 q 76 326 65 308 q 107 349 88 344 l 122 353 q 133 356 126 354 q 132 375 133 365 q 122 536 128 442 q 119 707 118 633 q 122 825 121 781 l 125 868 q 142 903 126 889 q 178 915 157 917 q 213 899 199 914 q 225 863 226 883 l 222 819 q 219 706 221 778 q 222 540 218 635 q 232 388 226 450 q 267 399 250 393 q 363 425 306 410 q 472 457 418 440 q 549 485 521 472 q 601 513 579 500 l 624 525 q 644 531 633 529 q 653 647 649 588 q 664 749 660 724 l 667 774 q 688 806 671 793 z "},"I":{"ha":296,"x_min":69,"x_max":228,"o":"m 91 906 q 99 913 91 906 q 127 918 107 919 q 161 901 147 917 q 174 865 175 885 l 171 810 q 174 693 168 757 q 186 553 179 625 q 194 397 193 476 q 196 257 194 321 q 199 158 197 192 q 200 124 199 138 l 211 113 q 227 78 226 99 q 214 42 228 57 q 179 26 200 26 q 143 39 158 25 l 129 53 q 100 113 100 81 q 99 156 100 122 q 96 254 97 189 q 94 397 94 319 q 86 543 93 472 q 74 685 79 617 q 71 815 67 756 l 74 871 q 91 906 75 892 z "},"J":{"ha":701,"x_min":69,"x_max":633,"o":"m 435 817 q 425 820 435 817 q 406 842 415 824 q 404 879 397 860 q 429 908 411 899 l 440 914 q 483 925 460 924 q 511 929 496 926 q 547 947 525 947 q 578 939 564 949 q 610 911 600 932 q 603 863 621 885 l 604 853 q 615 715 607 806 q 628 572 625 615 q 633 410 633 519 q 624 244 632 299 q 576 115 613 186 q 479 -12 539 42 q 364 -78 415 -69 q 274 -68 314 -85 q 174 13 238 -51 q 97 108 111 76 q 79 151 86 133 q 69 199 68 178 l 69 210 q 86 244 71 231 q 122 258 101 258 q 157 241 143 257 q 169 206 171 225 l 169 196 q 172 188 169 192 q 189 150 178 172 q 246 82 196 133 q 313 25 294 32 q 350 22 326 18 q 413 63 371 25 q 488 160 458 104 q 525 261 517 218 q 533 410 532 307 q 529 564 533 514 q 515 706 524 615 q 506 828 508 781 q 493 826 499 826 q 485 824 488 825 l 474 818 q 435 817 454 810 z "},"K":{"ha":838,"x_min":71,"x_max":768,"o":"m 728 900 q 739 898 728 900 q 760 878 749 896 q 767 841 771 861 q 746 810 763 821 l 733 801 q 708 783 725 796 q 656 738 690 768 q 581 661 624 710 q 503 575 533 610 q 429 507 468 538 q 411 492 419 499 q 439 456 421 479 q 485 388 467 417 q 536 322 499 364 q 592 247 581 271 q 631 193 597 235 q 681 126 668 144 q 697 103 690 111 q 711 86 703 94 l 721 76 q 733 40 733 61 q 717 6 732 19 q 681 -7 703 -8 q 646 8 660 -6 l 638 19 q 618 42 626 31 q 597 71 610 53 q 551 131 586 86 q 501 204 513 181 q 461 256 496 215 q 399 336 418 304 q 358 396 383 361 q 336 424 346 413 q 301 403 319 411 q 271 383 281 392 q 238 357 253 367 q 217 344 225 350 l 207 339 q 182 332 196 332 q 182 301 182 317 q 179 168 181 215 q 178 99 178 124 l 178 51 q 163 16 178 31 q 128 1 149 1 q 92 16 107 1 q 78 51 78 31 l 78 99 q 79 171 78 125 q 82 303 81 217 q 81 461 82 386 q 76 621 79 536 q 71 781 74 706 q 74 883 68 861 l 76 897 q 99 929 82 918 q 137 935 117 940 q 168 913 157 931 q 174 875 179 894 l 171 861 q 171 783 169 846 q 176 624 174 710 q 181 464 179 539 q 182 440 181 451 q 186 443 185 443 q 203 457 192 447 q 257 492 224 475 q 299 524 278 503 q 367 585 329 554 q 428 643 400 611 q 506 728 460 676 q 592 814 554 782 q 644 860 626 844 q 679 886 665 876 l 692 893 q 728 900 708 904 z "},"L":{"ha":849,"x_min":69,"x_max":781,"o":"m 394 108 q 521 106 465 104 q 603 100 574 106 q 669 75 639 94 q 733 17 694 58 l 767 -19 q 780 -56 781 -35 q 764 -90 779 -76 q 728 -103 749 -104 q 693 -87 707 -103 l 660 -50 q 615 -8 631 -18 q 588 1 603 -1 q 521 6 565 6 q 386 10 463 4 q 251 14 294 14 l 171 14 q 144 15 153 14 q 119 22 136 15 q 89 42 101 29 q 69 110 71 68 q 74 222 69 140 q 83 418 78 301 q 94 608 90 535 q 96 737 99 681 q 89 813 93 793 l 86 835 q 94 872 82 854 q 127 892 107 889 q 164 883 147 894 q 185 850 181 871 l 188 829 q 195 742 192 804 q 194 603 199 681 q 183 413 190 528 q 174 217 178 296 q 169 114 169 143 l 171 114 l 251 114 q 394 108 297 114 z "},"M":{"ha":1014,"x_min":72,"x_max":946,"o":"m 224 6 q 221 -4 224 6 q 200 -24 218 -14 q 162 -27 182 -33 q 132 -3 142 -21 l 108 40 q 73 135 81 92 q 75 246 65 179 q 97 364 85 304 q 117 478 108 421 q 128 565 125 532 q 131 654 131 597 q 131 735 131 714 q 128 744 129 739 q 133 761 126 749 q 154 785 139 774 q 211 794 192 806 q 236 760 231 783 l 243 736 q 289 622 257 697 q 365 454 321 546 q 432 307 410 360 q 449 272 440 288 q 481 351 461 313 q 542 456 506 400 q 617 564 576 510 q 686 663 656 617 q 756 758 719 713 q 821 828 794 810 q 827 833 822 829 q 834 837 832 836 q 842 841 836 838 q 850 845 847 844 q 860 849 853 846 q 871 850 867 851 q 883 849 875 849 q 940 790 928 844 q 946 690 946 764 q 940 510 946 621 q 929 329 935 399 q 925 210 924 263 q 928 115 928 154 q 935 35 929 78 l 939 -12 q 928 -49 942 -32 q 895 -67 915 -65 q 858 -56 875 -69 q 840 -22 842 -43 l 835 24 q 829 113 831 71 q 825 207 828 151 q 829 336 824 265 q 840 514 835 404 q 846 690 846 624 q 846 711 846 703 q 833 697 840 704 q 769 607 800 654 q 697 506 738 560 q 625 401 658 453 q 569 306 593 351 q 539 221 549 264 q 536 205 538 218 q 532 183 535 192 q 524 162 529 174 q 506 142 518 150 q 476 132 493 135 q 456 132 467 129 q 438 136 444 135 q 424 144 432 138 q 413 155 417 151 q 404 165 410 158 q 397 174 399 172 q 340 267 367 207 q 275 411 318 318 q 224 521 247 468 q 217 463 221 494 q 196 343 207 404 q 175 229 183 286 q 172 153 167 181 q 196 88 176 125 l 219 44 q 224 6 229 26 z "},"N":{"ha":885,"x_min":69,"x_max":817,"o":"m 155 17 q 148 10 155 17 q 119 3 140 3 q 84 17 99 3 q 69 53 69 32 l 69 79 q 71 147 69 106 q 75 282 74 186 q 78 429 76 379 q 88 571 79 481 q 113 721 96 664 q 144 799 132 779 q 183 824 158 817 q 233 815 207 831 q 243 808 239 813 q 251 799 247 804 q 258 791 256 794 q 263 781 260 788 q 268 772 267 775 q 273 762 269 769 q 278 750 276 754 q 331 656 294 715 q 429 503 368 594 q 546 347 490 413 q 647 225 603 281 q 707 156 679 186 q 703 292 703 215 q 696 461 703 378 q 679 618 689 543 q 661 739 668 694 q 649 810 654 783 l 644 838 q 652 876 640 858 q 684 897 664 893 q 722 888 704 900 q 743 856 739 875 l 747 828 q 760 756 753 800 q 778 632 767 710 q 796 468 789 554 q 803 292 803 382 q 810 140 803 206 q 815 46 815 69 q 815 40 815 44 q 812 24 815 35 q 803 6 808 14 q 787 -10 799 -3 q 760 -15 775 -17 q 714 4 736 -15 q 657 63 697 21 q 569 163 615 106 q 469 282 526 217 q 346 446 410 351 q 244 604 283 540 q 204 675 221 643 q 186 561 193 631 q 178 428 179 475 q 175 281 176 378 q 171 142 174 183 q 169 79 169 104 l 169 53 q 155 17 169 32 z "},"O":{"ha":811,"x_min":71,"x_max":743,"o":"m 394 733 q 365 719 379 729 q 303 654 339 703 q 240 547 264 603 q 194 431 215 488 q 171 335 175 379 q 171 240 168 285 q 208 161 174 207 q 296 92 246 114 q 378 69 349 68 q 432 82 408 71 q 485 113 460 93 q 553 167 514 135 q 599 219 585 192 q 629 297 617 253 q 642 376 642 338 q 633 458 643 417 q 611 539 624 501 q 568 599 601 567 q 505 651 526 636 q 465 676 483 667 q 428 700 440 689 q 400 726 414 710 q 394 733 397 729 m 403 838 q 410 838 406 838 l 438 842 q 474 831 457 843 q 493 797 490 818 q 490 778 493 788 q 513 764 497 772 q 563 733 536 751 q 635 672 589 714 q 706 571 688 624 q 732 479 721 528 q 742 376 743 429 q 725 267 742 321 q 688 174 710 215 q 615 89 664 128 q 546 33 575 57 q 472 -10 511 7 q 381 -31 432 -29 q 256 0 329 -32 q 129 100 182 33 q 71 233 76 169 q 71 342 68 285 q 100 465 76 401 q 149 586 122 525 q 222 714 176 653 q 311 804 269 778 q 403 838 356 832 z "},"P":{"ha":771,"x_min":72,"x_max":700,"o":"m 201 281 q 211 175 207 221 q 229 76 217 122 q 244 4 244 22 l 244 -7 q 230 -42 244 -28 q 195 -57 215 -57 q 160 -42 175 -57 q 144 -8 144 -28 l 144 1 q 133 50 143 14 q 113 164 118 103 q 100 294 107 221 q 97 336 99 315 q 88 442 93 388 q 74 575 81 517 q 74 693 65 640 q 92 769 81 747 q 111 806 101 790 q 136 832 122 819 q 207 857 156 847 q 306 868 251 867 q 453 843 360 868 q 601 774 550 817 q 676 692 650 733 q 700 571 708 642 q 660 458 692 507 q 581 372 631 414 q 474 303 532 332 q 347 267 413 274 q 253 265 285 260 q 201 281 221 271 m 192 408 q 196 406 193 407 l 208 394 q 231 379 221 386 q 247 369 239 374 q 269 364 253 367 q 338 365 288 360 q 429 393 385 371 q 517 449 476 417 q 576 514 556 481 q 600 583 596 543 q 592 638 604 618 q 536 697 574 667 q 426 747 503 726 q 306 768 347 768 q 228 760 263 767 q 197 751 207 756 q 192 746 194 749 q 182 728 188 740 q 172 679 178 718 q 172 586 167 639 q 188 451 179 526 q 192 408 189 431 z "},"Q":{"ha":879,"x_min":71,"x_max":810,"o":"m 410 793 q 397 788 403 790 q 318 740 361 772 q 244 654 278 711 q 190 543 208 590 q 171 449 174 497 q 171 325 168 394 q 204 206 174 263 q 264 122 236 146 q 310 92 294 97 q 368 81 328 85 q 390 79 379 79 q 412 110 394 99 q 449 118 429 122 l 474 114 q 507 104 490 111 q 514 108 510 106 q 593 181 550 125 q 663 300 639 239 q 679 421 685 357 q 654 538 674 490 q 611 646 631 593 q 578 701 596 686 q 525 736 554 722 q 463 763 492 751 q 410 793 428 776 m 492 858 q 499 856 496 857 q 568 826 531 843 q 642 778 608 807 q 704 681 681 746 q 746 576 724 631 q 779 429 772 514 q 756 264 786 342 q 672 119 728 189 q 596 42 633 69 q 679 -42 626 15 q 754 -119 733 -100 q 792 -158 782 -143 l 800 -168 q 810 -206 813 -185 q 790 -238 807 -226 q 753 -247 774 -250 q 719 -228 732 -244 l 713 -218 q 688 -193 707 -211 q 606 -110 663 -171 q 526 -31 553 -53 q 496 -7 510 -18 q 458 -17 476 -12 q 356 -19 410 -25 q 275 -1 304 -12 q 200 46 243 10 q 115 158 157 82 q 71 319 75 236 q 71 454 68 394 q 96 578 74 518 q 158 704 117 633 q 258 821 203 781 q 357 879 310 858 q 413 903 399 899 l 425 908 q 463 906 443 915 q 489 879 482 897 q 492 858 493 869 z "},"R":{"ha":800,"x_min":69,"x_max":731,"o":"m 203 517 q 275 521 239 521 q 376 500 321 521 q 472 450 429 481 q 474 449 472 450 q 486 451 481 450 q 585 515 535 461 q 631 592 632 567 q 601 654 629 621 q 494 735 569 693 q 340 797 419 778 q 222 817 261 815 q 183 813 193 817 q 181 810 182 811 q 175 797 178 804 q 169 747 172 786 q 181 629 167 704 q 203 517 190 579 m 564 374 q 617 286 601 336 q 656 188 632 242 q 692 100 682 129 q 704 31 701 68 q 708 -11 707 0 l 708 -24 q 698 -60 711 -43 q 664 -78 685 -76 q 627 -67 643 -81 q 610 -33 611 -53 l 608 -21 q 604 24 607 -8 q 596 69 603 49 q 564 147 589 93 q 522 256 539 206 q 483 313 511 289 q 456 336 469 325 q 446 344 451 340 q 367 342 404 340 q 235 360 299 344 q 251 253 244 301 q 240 96 264 156 l 222 49 q 195 21 214 29 q 157 20 176 13 q 129 47 138 28 q 129 85 121 67 l 147 133 q 153 239 161 168 q 124 406 143 314 q 111 467 100 436 q 82 611 94 547 q 70 754 67 697 q 81 828 74 811 q 92 856 85 842 q 135 900 103 882 q 222 917 164 917 q 364 894 272 915 q 544 822 457 872 q 678 718 633 771 q 731 597 726 661 q 658 447 733 529 q 564 374 614 399 z "},"S":{"ha":849,"x_min":69,"x_max":778,"o":"m 778 662 q 774 652 778 662 q 753 633 771 642 q 715 631 735 624 q 686 656 694 638 l 668 692 q 617 753 654 718 q 515 813 578 788 q 385 846 451 839 q 307 844 326 853 q 272 817 286 835 q 268 803 267 808 q 303 742 272 783 q 363 679 335 699 q 433 625 399 654 q 525 557 465 599 q 629 482 588 514 q 689 435 672 449 q 708 331 729 401 q 676 249 696 288 q 626 174 657 210 q 558 114 594 135 q 435 99 515 90 q 275 151 360 106 q 149 239 190 196 q 92 304 110 279 l 78 326 q 71 364 67 343 q 92 396 75 385 q 129 403 108 407 q 161 382 150 399 l 175 360 q 221 308 188 343 q 322 240 251 276 q 444 197 390 204 q 510 201 494 193 q 550 238 529 213 q 588 294 572 264 q 613 360 603 325 q 614 367 614 363 q 569 401 599 381 q 468 475 528 433 q 371 549 406 519 q 306 597 339 575 q 222 682 264 626 q 171 779 181 740 q 193 878 157 832 q 265 935 222 914 q 396 946 310 956 q 553 906 476 938 q 683 828 631 874 q 757 736 736 781 l 775 700 q 778 662 785 682 z "},"T":{"ha":811,"x_min":69,"x_max":743,"o":"m 428 -28 q 420 -36 428 -28 q 392 -43 413 -43 q 358 -28 372 -43 q 343 7 343 -14 l 343 28 q 333 115 343 46 q 313 278 322 189 q 313 476 303 371 q 327 657 321 576 q 336 779 333 738 l 336 796 q 231 788 276 792 q 156 776 178 782 l 131 771 q 93 778 111 767 q 71 808 75 789 q 78 846 67 828 q 108 868 89 864 l 133 874 q 221 886 163 881 q 356 896 278 893 q 474 906 429 900 q 553 918 519 913 q 619 928 586 924 q 675 933 654 933 l 692 935 q 727 920 713 935 q 742 885 742 906 q 728 850 743 865 q 693 835 714 835 l 676 833 q 633 829 663 833 q 568 819 601 825 q 488 807 535 814 q 438 801 465 804 l 436 774 q 428 649 433 731 q 413 467 421 568 q 413 289 404 372 q 432 129 421 201 q 443 28 443 53 l 443 7 q 428 -28 443 -14 z "},"U":{"ha":815,"x_min":71,"x_max":747,"o":"m 736 789 q 739 753 738 774 q 745 644 743 706 q 747 519 747 582 q 739 388 746 454 q 713 254 733 318 q 650 132 690 188 q 557 44 608 75 q 476 7 508 15 q 392 -3 447 0 q 275 11 331 -6 q 193 46 222 28 q 131 131 156 69 q 101 244 110 182 q 85 369 94 299 q 71 526 75 442 q 75 682 67 614 q 83 782 82 743 l 85 824 q 101 858 85 844 q 137 872 117 872 q 171 856 157 871 q 185 819 185 840 l 183 779 q 174 669 182 736 q 171 532 167 610 q 185 382 175 450 q 201 257 194 313 q 224 168 207 208 q 246 131 236 136 q 304 107 263 119 q 386 97 343 94 q 453 104 433 100 q 506 131 469 108 q 569 192 539 151 q 617 285 600 233 q 640 397 635 339 q 647 519 646 460 q 645 641 647 582 q 639 746 643 700 q 635 817 636 793 q 629 826 632 819 q 632 847 626 832 q 660 876 638 863 q 707 886 690 892 q 728 867 724 881 l 733 851 l 740 839 q 736 789 751 814 z "},"V":{"ha":926,"x_min":71,"x_max":857,"o":"m 71 802 q 74 812 71 802 q 94 833 76 822 q 133 838 113 843 q 163 814 153 832 l 193 763 q 253 635 224 707 q 321 486 278 567 q 381 350 367 399 q 422 240 392 310 q 454 165 440 199 q 458 175 456 171 q 531 332 485 239 q 606 492 575 422 q 661 606 638 564 q 708 715 682 642 q 756 824 739 801 l 767 840 q 799 859 779 856 q 836 851 819 863 q 856 818 853 839 q 847 781 860 797 l 836 765 q 803 682 828 750 q 747 556 774 599 q 697 451 726 519 q 621 288 665 379 q 550 136 576 197 q 506 42 522 71 q 501 35 504 39 q 489 24 497 32 q 472 9 481 15 q 452 -2 464 3 q 431 -6 440 -7 q 413 5 422 -4 q 396 33 403 14 q 378 86 393 42 q 331 200 363 129 q 285 324 297 276 q 232 440 274 361 q 160 599 188 526 q 106 713 133 664 l 76 764 q 71 802 65 782 z "},"W":{"ha":1026,"x_min":69,"x_max":957,"o":"m 81 778 q 87 786 81 778 q 113 797 93 794 q 150 787 133 800 q 169 753 167 774 l 172 732 q 194 639 174 715 q 232 467 217 557 q 267 297 247 381 q 303 160 285 226 q 321 210 313 185 q 375 379 347 282 q 440 581 406 478 q 493 731 475 683 q 517 792 511 776 q 613 743 549 881 q 636 686 636 686 q 674 436 653 575 q 719 225 693 303 q 738 163 729 192 q 774 278 758 215 q 808 432 793 354 q 839 607 824 510 q 857 750 854 701 q 857 808 858 796 l 856 826 q 866 863 853 846 q 899 881 879 879 q 936 870 919 883 q 956 838 953 857 l 957 819 q 956 744 960 799 q 938 592 953 692 q 906 412 922 492 q 871 254 890 332 q 822 106 851 172 q 782 1 796 44 q 774 -6 779 -1 q 754 -24 768 -11 q 728 -44 740 -37 q 702 -56 715 -51 q 680 -52 689 -61 q 668 -22 671 -43 q 658 53 668 -14 q 624 193 650 115 q 575 422 596 281 q 549 592 561 513 q 535 549 542 571 q 471 350 500 449 q 415 176 442 250 q 361 33 389 103 q 360 27 361 31 q 357 13 360 24 q 349 -7 354 1 q 338 -26 344 -15 q 321 -41 331 -37 q 297 -47 311 -44 q 267 -40 283 -50 q 252 -31 258 -36 q 242 -21 246 -25 q 237 -10 239 -17 q 235 -1 235 -4 q 235 6 235 3 q 235 10 235 10 q 211 114 231 42 q 171 274 192 189 q 133 450 149 360 q 97 613 118 536 q 72 721 75 696 l 69 742 q 81 778 68 763 z "},"X":{"ha":1003,"x_min":69,"x_max":935,"o":"m 193 24 q 183 24 193 24 q 158 40 172 25 q 146 76 144 56 q 163 111 147 97 l 214 157 q 299 240 263 200 q 417 388 335 283 q 460 444 439 418 q 422 490 439 469 q 301 625 372 553 q 165 758 228 697 q 96 826 104 819 l 86 835 q 69 869 71 849 q 81 906 68 890 q 115 922 94 921 q 153 910 136 924 l 161 901 q 236 831 172 893 q 372 694 299 768 q 500 553 446 619 q 519 528 510 542 q 533 550 528 540 q 626 699 571 610 q 735 857 683 789 q 826 956 789 931 l 857 975 q 894 983 874 986 q 926 962 915 979 q 933 924 938 944 q 913 893 929 904 l 882 872 q 814 797 858 857 q 711 646 765 733 q 618 496 656 557 q 585 447 604 474 q 625 396 604 422 q 745 242 697 304 q 813 153 793 179 l 833 125 q 842 88 846 108 q 823 56 839 68 q 786 46 807 43 q 753 65 765 49 l 733 92 q 665 181 713 119 q 546 335 618 243 q 524 363 533 350 q 496 326 510 346 q 374 176 413 221 q 281 82 335 129 l 229 36 q 193 24 214 22 z "},"Y":{"ha":806,"x_min":72,"x_max":738,"o":"m 403 7 q 395 0 403 7 q 367 -6 388 -7 q 333 10 347 -6 q 319 46 318 25 l 322 104 q 325 210 324 163 q 326 315 326 258 q 326 349 326 333 q 308 374 315 358 q 264 460 301 390 q 174 619 224 531 q 97 760 121 710 l 74 810 q 72 847 65 828 q 98 876 79 867 q 136 878 117 885 q 164 853 156 871 l 188 803 q 260 669 210 756 q 351 508 311 581 q 367 479 358 493 q 393 515 379 497 q 479 624 431 565 q 554 726 522 676 q 614 838 588 779 q 638 901 636 885 l 638 921 q 652 957 638 942 q 687 972 667 972 q 722 958 707 972 q 738 922 738 943 l 738 901 q 706 796 738 868 q 639 674 675 732 q 554 558 603 617 q 472 456 508 504 q 425 385 440 413 q 426 315 426 361 q 425 208 426 257 q 422 100 424 158 l 419 42 q 403 7 418 21 z "},"Z":{"ha":797,"x_min":69,"x_max":728,"o":"m 110 752 q 100 754 110 752 q 78 772 90 756 q 70 810 67 789 q 90 842 74 831 l 101 849 q 114 857 107 854 q 126 862 121 860 q 140 865 131 864 q 151 867 149 867 q 166 867 154 867 q 181 869 178 868 q 293 875 228 872 q 433 879 357 876 q 572 886 510 883 q 667 889 638 890 q 704 876 689 888 q 727 846 722 863 q 725 813 732 829 q 714 790 718 797 q 704 778 710 783 q 613 681 681 749 q 503 554 549 617 q 401 406 454 492 q 307 256 346 317 q 253 153 271 197 q 243 129 247 139 q 265 132 254 131 q 408 150 332 142 q 537 162 483 158 q 606 165 590 165 q 651 158 632 167 l 661 156 q 688 128 679 147 q 690 90 697 110 q 663 63 682 71 q 625 63 643 54 l 615 65 q 608 65 613 65 q 543 63 594 65 q 419 51 493 60 q 281 33 346 43 q 179 28 206 22 q 134 65 146 35 q 132 121 122 94 q 160 190 140 140 q 222 308 182 243 q 317 458 261 369 q 422 615 372 549 q 542 751 474 682 q 578 786 561 769 q 438 779 514 783 q 296 775 361 776 q 189 769 233 774 q 156 765 165 768 l 147 760 q 110 752 131 749 z "},"a":{"ha":653,"x_min":69,"x_max":585,"o":"m 469 263 q 431 265 450 256 q 406 293 413 274 l 397 317 q 375 319 397 318 q 317 322 340 322 q 275 317 296 322 q 263 314 268 315 q 253 301 257 307 q 207 263 240 285 q 179 240 186 249 q 171 229 172 235 q 169 226 169 228 q 171 207 169 219 q 181 188 172 200 q 214 151 190 171 q 253 119 240 129 q 296 103 263 113 q 375 83 339 89 q 418 78 408 78 q 432 81 422 78 l 449 85 q 467 85 457 86 l 468 90 q 472 117 469 97 q 475 161 475 136 q 476 228 475 190 q 478 267 476 246 q 469 263 474 264 m 113 462 q 102 463 113 462 q 79 481 92 464 q 69 518 67 497 q 89 551 72 539 l 114 571 q 158 617 135 588 q 217 679 189 656 q 261 714 243 703 q 317 739 285 731 q 349 741 338 740 q 377 733 360 742 q 404 719 394 725 q 431 701 414 714 q 519 624 485 664 q 572 511 558 579 q 585 400 585 453 q 581 303 585 350 q 576 224 578 258 q 575 161 575 189 q 571 104 575 131 q 563 61 568 76 l 560 49 q 539 22 554 32 q 506 14 524 11 q 472 -12 494 -7 l 456 -17 q 418 -22 433 -22 q 360 -15 404 -22 q 265 7 315 -8 q 190 42 210 25 q 149 76 176 51 q 97 132 115 104 q 72 193 76 164 q 69 229 69 215 q 79 271 69 249 q 104 308 88 289 q 151 346 119 325 q 174 364 168 358 q 190 383 183 375 q 251 414 208 404 q 317 422 285 422 q 383 419 344 422 q 449 407 429 417 q 485 369 472 394 q 485 400 485 385 q 475 492 485 442 q 444 558 465 533 q 374 619 418 589 q 336 640 350 636 q 318 632 325 636 q 282 604 304 622 q 238 556 263 586 q 176 492 207 515 l 150 472 q 113 462 133 460 z "},"b":{"ha":656,"x_min":71,"x_max":588,"o":"m 174 933 q 182 941 174 933 q 210 949 189 949 q 245 933 231 949 q 260 899 260 918 l 260 597 q 261 479 260 531 q 300 500 282 493 q 382 507 332 513 q 454 489 424 501 q 529 435 488 475 q 583 354 575 390 q 586 265 589 328 q 582 164 585 207 q 540 64 578 104 q 471 13 508 29 q 388 -3 433 -4 q 289 22 344 -1 q 222 54 250 38 q 208 54 215 53 q 180 66 192 56 q 164 92 168 76 q 153 97 158 94 q 106 119 118 113 l 94 125 q 71 155 76 135 q 76 193 65 175 q 106 217 86 211 q 143 213 126 222 l 154 207 q 172 199 157 204 q 172 215 172 207 q 172 267 174 239 q 165 360 169 297 q 161 476 163 424 q 160 597 160 529 l 160 899 q 174 933 160 918 m 268 144 q 326 115 289 131 q 392 97 365 99 q 431 104 414 97 q 467 132 449 111 q 482 172 481 146 q 486 268 485 213 q 485 332 488 315 q 460 363 481 343 q 415 396 431 390 q 369 407 399 404 q 338 407 346 410 q 294 381 324 401 l 265 360 q 271 274 269 303 q 272 214 274 240 q 269 161 272 186 q 268 144 268 153 z "},"c":{"ha":714,"x_min":72,"x_max":646,"o":"m 631 323 q 624 316 631 323 q 596 308 617 308 q 560 323 575 308 q 546 358 546 338 l 546 378 q 543 397 546 388 q 526 425 539 408 q 494 460 514 443 q 467 482 478 475 q 442 481 458 482 q 388 468 410 478 q 303 430 360 456 q 225 394 247 404 q 217 386 219 390 q 192 331 207 364 q 171 285 178 303 q 171 256 168 276 q 194 189 176 228 q 250 131 208 157 q 336 82 299 97 q 406 65 371 68 q 439 64 428 63 q 464 79 449 68 q 518 113 488 96 q 533 122 529 118 q 538 138 536 132 l 539 151 q 558 185 542 172 q 594 195 574 197 q 628 176 615 193 q 639 140 640 160 l 636 125 q 624 81 635 104 q 567 25 610 49 q 521 -3 540 10 q 475 -29 494 -21 q 396 -35 449 -40 q 299 -10 347 -31 q 194 46 251 8 q 103 147 131 89 q 72 239 79 197 q 76 319 65 286 q 101 376 85 343 q 125 425 117 406 q 182 483 142 464 q 263 522 206 496 q 349 560 319 547 q 432 581 385 575 q 514 569 486 586 q 560 536 532 560 q 608 483 588 511 q 636 431 628 454 q 646 378 646 404 l 646 358 q 631 323 646 338 z "},"d":{"ha":678,"x_min":72,"x_max":607,"o":"m 487 921 q 495 927 487 921 q 523 931 503 933 q 556 913 543 929 q 567 876 569 896 l 563 836 q 560 740 558 800 q 576 607 563 679 q 593 471 592 525 q 594 375 596 419 q 593 300 593 332 q 594 235 593 268 q 594 164 594 200 q 596 100 596 129 l 597 69 q 596 57 597 64 q 606 43 603 50 q 606 4 614 24 q 579 -24 599 -15 l 571 -26 q 510 -41 557 -33 q 429 -47 464 -49 q 354 -32 394 -44 q 257 13 313 -21 q 163 83 203 46 q 97 181 119 126 q 74 256 79 229 q 72 343 67 288 q 82 418 79 392 q 90 481 86 444 q 106 553 94 524 q 157 626 118 586 q 194 669 186 657 q 244 707 215 699 q 259 711 253 710 q 273 712 265 713 q 285 710 281 711 q 299 707 290 710 q 310 703 307 704 q 322 699 313 703 q 333 694 332 694 q 432 629 383 674 q 479 581 458 606 q 478 588 479 583 q 460 737 463 669 q 464 847 458 804 l 468 888 q 487 921 471 908 m 494 385 q 492 389 493 388 l 471 417 q 424 488 450 446 q 365 556 403 522 q 296 601 329 588 q 275 608 285 606 q 229 558 261 592 q 199 517 204 532 q 189 469 192 500 q 182 406 185 432 q 172 332 178 379 q 171 276 168 292 q 190 217 175 257 q 232 157 204 183 q 310 99 264 126 q 382 64 354 72 q 435 54 411 56 q 493 58 458 53 q 499 58 496 58 q 497 67 497 63 l 497 96 q 494 163 496 126 q 494 232 494 199 q 493 300 493 267 q 494 378 493 333 q 494 385 494 382 z "},"e":{"ha":656,"x_min":69,"x_max":586,"o":"m 181 396 q 253 394 213 394 q 342 401 301 394 q 407 418 381 407 q 421 424 414 421 q 403 444 414 433 q 342 483 382 465 q 281 501 304 501 q 268 497 271 501 q 208 442 246 469 q 185 415 189 426 q 181 396 182 407 m 79 365 q 79 369 79 365 q 90 446 79 411 q 147 521 103 486 q 190 561 175 542 q 282 601 225 603 q 383 575 326 600 q 474 515 439 550 q 524 442 508 479 q 528 420 526 432 q 530 393 531 408 q 519 364 529 378 q 490 343 508 350 q 444 325 475 338 q 357 303 408 310 q 253 294 308 294 q 176 296 211 294 q 172 244 175 271 q 169 199 169 217 q 169 178 169 188 q 210 142 182 165 q 315 82 256 100 q 389 71 369 64 q 442 103 414 79 q 481 143 472 131 q 486 151 483 147 l 488 158 q 507 190 490 178 q 544 199 524 203 q 576 178 564 196 q 586 142 589 161 l 583 132 q 563 85 581 111 q 508 29 547 64 q 421 -25 465 -10 q 285 -14 369 -42 q 143 65 206 11 q 124 82 138 71 q 103 99 110 93 q 89 115 97 104 q 76 136 81 125 q 71 161 72 147 q 69 199 69 178 q 74 256 69 222 q 78 311 76 285 q 78 335 78 322 q 76 353 76 344 q 79 365 76 358 z "},"f":{"ha":661,"x_min":69,"x_max":590,"o":"m 81 552 q 75 560 81 552 q 70 588 68 568 q 88 622 72 608 q 125 633 104 635 l 168 628 q 228 626 199 625 q 236 704 231 674 q 253 779 242 738 q 276 846 265 822 q 353 897 297 888 q 424 899 393 906 q 481 885 447 894 q 540 863 518 875 q 583 818 571 844 l 589 807 q 590 769 597 789 q 564 740 582 749 q 526 740 546 732 q 497 765 507 747 l 494 774 q 490 775 492 775 q 454 789 479 782 q 404 800 425 797 q 371 799 392 803 q 364 797 367 799 q 349 753 357 782 q 335 688 339 715 q 329 650 332 672 l 332 650 q 369 644 351 656 q 392 614 388 633 q 387 576 397 594 q 356 553 376 558 l 347 551 q 326 544 342 550 q 329 490 328 518 q 340 390 335 429 q 354 299 344 350 q 369 193 364 243 q 376 85 375 142 l 378 31 q 364 -5 378 10 q 329 -20 350 -19 q 293 -6 308 -21 q 278 29 278 8 l 276 83 q 269 181 275 135 q 256 281 264 229 q 240 377 246 335 q 229 483 235 419 q 228 526 228 506 q 157 529 193 525 l 114 533 q 81 552 94 536 z "},"g":{"ha":740,"x_min":69,"x_max":672,"o":"m 469 490 q 439 513 449 494 l 426 532 q 397 567 417 546 q 371 583 383 581 q 326 582 357 588 q 249 557 290 575 q 193 526 208 538 q 179 492 186 518 q 169 431 169 450 q 169 354 169 403 q 196 260 169 315 q 244 182 221 204 q 282 161 261 164 q 311 161 304 157 q 354 194 324 167 q 385 240 379 218 q 404 314 394 276 q 426 386 415 353 q 451 451 439 421 q 469 490 461 475 m 531 542 q 560 530 547 539 q 581 511 574 521 q 594 487 589 501 q 600 464 599 472 q 603 441 601 456 q 604 424 604 426 q 640 271 615 356 q 671 113 668 178 q 657 -29 674 47 q 621 -167 642 -100 q 576 -272 599 -236 q 503 -340 549 -315 q 403 -362 456 -365 q 332 -349 354 -360 q 274 -321 321 -343 q 169 -262 221 -297 q 92 -167 107 -219 q 79 -79 79 -122 l 79 -43 q 94 -8 79 -22 q 129 7 108 7 q 165 -8 150 7 q 179 -43 179 -22 l 179 -79 q 188 -137 179 -108 q 226 -181 193 -157 q 315 -231 271 -210 q 375 -258 361 -251 q 408 -262 385 -261 q 456 -253 433 -264 q 490 -219 478 -240 q 525 -136 507 -194 q 560 -7 544 -74 q 571 108 574 56 q 544 242 569 161 q 518 344 529 296 q 501 288 510 317 q 482 215 492 251 q 422 122 469 165 q 351 69 379 82 q 267 63 318 54 q 174 110 215 69 q 104 219 138 146 q 69 353 71 293 q 69 431 69 403 q 83 515 69 464 q 131 603 99 578 q 207 647 154 622 q 308 681 260 672 q 397 681 361 690 q 468 638 435 671 q 511 585 496 608 l 524 565 q 531 542 531 554 z "},"h":{"ha":660,"x_min":69,"x_max":592,"o":"m 71 707 q 71 709 71 707 q 71 711 71 711 q 69 828 68 786 q 71 878 71 868 q 97 893 75 896 q 146 879 119 890 l 172 868 q 172 790 174 843 q 171 708 171 746 q 174 617 172 660 l 174 615 q 224 639 197 626 q 304 674 268 658 q 385 694 350 693 q 454 674 425 694 q 494 625 482 654 q 515 557 501 606 q 536 468 526 511 q 551 393 547 424 q 565 319 557 364 q 581 232 574 272 q 589 140 589 188 q 590 46 590 96 l 592 -6 q 577 -41 592 -26 q 542 -56 563 -56 q 506 -41 521 -56 q 492 -7 492 -26 l 490 44 q 489 139 490 96 q 482 214 489 178 q 467 301 475 254 q 453 376 458 347 q 439 446 449 404 q 418 532 429 488 q 401 588 407 574 q 397 593 400 590 l 386 594 q 343 582 371 594 q 265 547 308 567 q 193 515 222 528 q 176 508 185 513 q 182 414 178 465 q 204 244 189 314 q 217 93 222 164 l 213 28 q 195 -6 211 8 q 159 -18 179 -19 q 125 -1 139 -17 q 113 36 111 15 l 118 100 q 107 222 122 157 q 82 407 90 300 q 75 536 76 482 q 71 565 71 551 l 71 622 q 71 700 71 658 l 71 707 z "},"i":{"ha":306,"x_min":69,"x_max":238,"o":"m 157 866 q 167 868 157 866 q 194 860 178 871 q 216 828 211 849 q 210 790 221 808 l 188 753 q 156 731 176 736 q 119 738 136 726 q 97 769 101 749 q 103 807 92 789 l 125 843 q 157 866 136 861 m 150 589 q 157 597 150 589 q 185 605 164 604 q 221 592 206 606 q 236 557 236 578 l 238 532 q 224 428 239 500 q 200 313 211 363 q 185 214 192 265 q 174 125 179 163 q 169 82 169 94 l 169 67 q 155 31 169 46 q 119 17 140 17 q 84 31 99 17 q 69 67 69 46 l 69 82 q 75 140 69 101 q 86 226 79 174 q 103 332 93 281 q 126 449 113 382 q 138 528 138 508 l 136 554 q 150 589 136 574 z "},"j":{"ha":488,"x_min":69,"x_max":419,"o":"m 315 669 q 315 680 315 669 q 330 704 315 690 q 365 718 344 718 q 400 704 386 718 l 406 700 q 419 665 419 686 q 405 629 419 643 q 369 615 390 615 q 335 629 349 615 l 331 633 q 315 669 315 647 m 301 546 q 309 551 301 546 q 338 553 318 557 q 370 533 358 550 q 378 494 382 515 l 375 481 q 353 388 371 465 q 333 247 336 314 q 325 110 329 185 q 319 3 322 42 q 304 -92 315 -40 q 250 -194 290 -157 q 192 -240 215 -228 q 135 -242 160 -251 q 96 -212 111 -233 q 69 -124 69 -179 q 89 -36 71 -74 l 103 -8 q 133 16 113 10 q 171 13 153 22 q 195 -16 189 4 q 193 -54 201 -36 l 178 -82 q 169 -124 169 -99 q 169 -133 169 -129 q 182 -122 176 -128 q 207 -71 200 -106 q 219 10 217 -25 q 225 115 222 49 q 233 253 229 185 q 256 410 238 328 q 276 500 274 486 l 279 514 q 301 546 283 535 z "},"k":{"ha":724,"x_min":69,"x_max":654,"o":"m 637 574 q 645 568 637 574 q 654 540 653 561 q 642 504 656 519 q 608 488 628 489 l 593 486 q 515 460 576 482 q 376 406 442 432 q 279 360 313 378 q 201 319 242 339 q 193 317 197 318 q 211 296 201 307 q 293 219 246 257 q 368 161 342 179 q 425 138 386 147 q 490 126 468 126 q 494 126 493 126 l 507 143 q 540 162 519 158 q 577 153 561 165 q 596 119 593 140 q 588 83 599 99 l 574 64 q 547 40 563 50 q 490 26 524 26 q 401 40 456 26 q 308 79 343 54 q 231 142 281 100 q 172 193 199 167 q 176 143 174 168 q 182 92 179 104 l 185 75 q 178 38 190 56 q 147 16 167 21 q 110 23 128 11 q 88 54 92 35 l 85 69 q 76 135 81 89 q 71 224 72 178 q 71 372 68 269 q 79 556 74 474 q 86 701 85 636 q 85 799 88 767 l 82 833 q 94 870 81 854 q 128 888 107 886 q 165 876 149 889 q 182 842 181 863 l 185 807 q 186 700 188 769 q 179 550 185 632 q 172 417 175 489 q 231 447 203 431 q 338 497 268 468 q 481 553 406 525 q 585 586 561 583 l 600 586 q 637 574 621 588 z "},"l":{"ha":336,"x_min":72,"x_max":267,"o":"m 101 -68 q 92 -65 101 -68 q 74 -42 82 -61 q 73 -4 65 -24 q 99 25 81 15 l 108 28 q 129 82 117 44 q 153 208 150 149 q 150 364 157 271 q 140 521 144 458 q 143 661 135 589 q 156 760 150 731 q 165 806 161 789 l 168 821 q 191 851 174 840 q 228 858 208 863 q 260 835 249 853 q 265 797 271 818 l 263 782 q 254 742 258 768 q 242 650 250 717 q 240 529 235 588 q 250 369 244 465 q 253 203 257 271 q 224 53 249 131 q 217 30 222 47 q 210 7 213 13 q 202 -12 208 1 q 191 -33 196 -26 q 177 -47 186 -39 q 157 -58 168 -54 l 140 -67 q 101 -68 121 -75 z "},"m":{"ha":993,"x_min":71,"x_max":925,"o":"m 128 664 q 163 660 146 668 q 188 638 179 653 q 244 667 214 663 q 278 665 261 669 q 342 642 313 658 q 417 554 374 624 q 474 457 454 494 q 508 358 492 418 q 519 319 514 339 q 522 346 521 333 q 553 494 531 440 q 615 588 576 553 q 722 619 664 631 q 800 572 775 608 q 835 478 819 544 q 864 342 849 421 q 893 208 881 263 q 911 114 906 151 q 918 49 915 78 q 922 -7 921 18 l 924 -29 q 911 -65 925 -50 q 876 -81 897 -81 q 840 -68 856 -82 q 824 -35 825 -54 l 822 -11 q 818 38 821 10 q 811 101 815 67 q 796 186 807 133 q 767 321 782 242 q 738 456 750 400 q 718 515 726 503 q 701 521 717 518 q 682 513 693 524 q 646 457 660 494 q 621 336 629 417 q 600 168 613 249 q 569 31 589 85 q 569 24 569 28 q 566 10 568 21 q 560 -10 564 -1 q 549 -28 556 -18 q 533 -42 542 -37 q 510 -44 524 -46 q 479 -32 496 -42 q 467 -23 472 -28 q 459 -14 461 -18 q 456 -5 457 -10 q 453 2 454 0 q 453 7 453 4 q 454 10 454 10 q 451 67 451 32 q 450 139 451 99 q 438 226 449 175 q 413 332 426 279 q 383 413 399 382 q 332 501 368 444 q 290 556 303 546 q 260 567 276 564 q 251 560 256 565 q 238 499 238 546 q 240 369 236 435 q 217 208 243 294 q 186 81 193 136 q 187 75 186 79 q 188 59 188 71 q 187 38 189 47 q 181 17 185 29 q 168 0 176 4 q 147 -8 160 -4 q 114 -4 133 -12 q 73 21 82 7 q 72 43 64 35 l 79 51 q 83 113 81 72 q 99 268 86 153 q 108 439 110 379 q 101 546 106 501 q 97 592 99 582 l 94 601 q 99 639 89 621 q 128 664 108 657 z "},"n":{"ha":708,"x_min":69,"x_max":639,"o":"m 160 574 q 168 582 160 574 q 195 589 175 589 q 231 574 215 589 q 246 539 246 560 l 246 526 q 239 454 246 511 q 232 401 236 428 q 279 503 251 463 q 372 569 315 554 q 481 568 425 583 q 564 526 531 553 q 624 439 604 497 q 639 303 642 386 q 624 168 636 222 q 603 78 611 119 q 589 10 594 35 l 582 -15 q 560 -45 578 -35 q 522 -51 542 -56 q 491 -28 501 -46 q 485 10 481 -11 l 492 33 q 506 97 497 56 q 525 192 514 142 q 539 306 536 235 q 529 407 542 372 q 504 447 519 436 q 451 472 485 463 q 399 472 424 479 q 361 444 376 467 q 325 361 340 415 q 279 226 307 297 q 243 101 254 163 q 196 -31 229 26 q 163 -67 196 -31 q 72 -53 90 -132 q 71 28 68 -33 q 96 188 72 88 q 125 343 118 278 q 139 467 133 411 q 146 526 146 518 l 146 539 q 160 574 146 560 z "},"o":{"ha":732,"x_min":69,"x_max":664,"o":"m 458 550 q 428 549 443 544 l 397 557 q 322 550 378 561 q 228 526 257 536 q 211 519 217 524 q 200 486 206 510 q 185 428 193 451 q 175 388 179 407 q 169 349 171 371 q 183 290 168 332 q 217 226 196 249 q 278 185 239 204 q 392 167 317 167 q 494 189 463 167 q 549 250 529 214 q 563 325 565 283 q 536 433 560 375 q 501 517 511 497 q 475 539 496 526 q 458 550 467 544 m 397 657 q 426 672 408 669 q 457 667 443 674 l 475 656 q 529 624 496 644 q 590 561 572 596 q 629 469 603 538 q 663 332 658 397 q 636 203 668 261 q 553 108 607 147 q 392 67 494 67 q 235 94 294 67 q 144 158 178 122 q 88 258 108 196 q 69 354 68 318 q 78 411 72 386 q 90 457 82 433 q 103 508 96 476 q 128 575 113 550 q 197 622 149 607 q 301 647 232 633 q 397 657 360 660 z "},"p":{"ha":618,"x_min":71,"x_max":550,"o":"m 211 506 q 231 538 221 522 q 281 597 257 574 q 375 636 313 631 q 483 614 435 643 q 508 599 500 604 q 528 581 517 593 q 544 553 539 568 q 549 531 547 540 q 549 509 550 521 q 546 491 547 497 q 540 468 544 485 q 533 443 535 451 q 513 344 518 378 q 503 276 508 308 q 479 206 496 239 q 407 138 458 164 q 310 106 363 114 q 229 107 263 99 q 235 31 231 65 q 247 -87 240 -47 q 256 -175 254 -133 q 256 -243 258 -218 q 235 -282 253 -268 q 199 -297 217 -297 q 169 -290 181 -297 q 147 -269 158 -283 q 132 -249 136 -256 q 125 -235 128 -242 q 125 -233 125 -233 q 72 -100 78 -168 q 71 36 67 -40 q 83 167 75 111 q 129 293 93 228 q 128 354 128 329 q 126 374 126 364 q 114 478 122 422 q 101 568 104 547 l 99 588 q 108 625 96 608 q 141 644 121 642 q 178 635 161 647 q 197 601 194 622 l 200 582 q 211 506 203 564 m 229 269 q 229 213 229 242 q 233 211 232 211 l 254 203 q 296 204 265 200 q 360 225 331 210 q 390 250 383 238 q 404 293 400 271 q 414 358 410 322 q 436 467 419 397 q 447 518 444 500 q 433 528 440 524 q 385 538 413 540 q 351 526 360 535 q 313 479 333 508 q 285 426 293 453 q 264 354 275 393 q 229 269 254 317 z "},"q":{"ha":744,"x_min":69,"x_max":674,"o":"m 493 493 q 483 510 488 501 q 460 536 472 525 q 389 581 424 569 q 320 586 356 592 q 246 554 285 581 q 189 479 210 529 q 169 388 167 426 q 194 308 174 346 q 251 243 214 271 q 322 203 292 214 q 358 193 349 194 q 400 192 372 193 q 440 192 425 190 q 506 186 464 193 q 513 185 508 185 q 506 238 508 211 q 500 286 503 263 q 492 482 486 414 q 493 493 493 486 m 622 161 l 643 153 q 671 126 663 146 q 672 89 679 107 q 632 57 663 61 q 643 -12 638 19 q 668 -167 664 -121 q 672 -225 672 -212 q 647 -254 672 -253 q 596 -243 621 -256 l 569 -231 q 550 -118 567 -214 q 528 50 533 -21 q 525 81 526 64 q 488 88 513 82 q 447 92 457 93 q 396 92 426 90 q 358 93 369 93 q 291 108 338 93 q 192 163 244 124 q 106 260 138 204 q 71 378 75 317 q 96 518 65 443 q 189 638 129 594 q 306 685 247 676 q 421 675 365 694 q 525 613 474 658 q 579 622 550 635 q 606 594 597 614 q 606 557 614 575 l 601 546 q 596 508 599 536 q 606 478 601 493 q 624 342 626 401 q 622 310 624 326 q 621 207 621 267 q 622 161 621 183 z "},"r":{"ha":554,"x_min":69,"x_max":483,"o":"m 482 528 q 486 519 482 528 q 483 490 490 510 q 456 463 475 471 q 417 463 436 456 l 407 467 q 378 474 400 469 q 353 475 360 476 q 311 460 339 471 q 271 428 293 453 q 194 367 236 388 q 179 358 186 363 q 176 353 178 356 q 178 335 176 344 q 188 231 183 272 q 193 101 193 186 l 194 18 q 180 -17 194 -1 q 144 -32 165 -32 q 109 -17 124 -32 q 94 18 94 -3 l 93 101 q 89 219 93 181 q 78 325 83 263 q 71 446 72 390 q 71 532 68 501 q 78 589 74 563 l 81 614 q 100 647 83 635 q 138 656 117 660 q 171 636 158 653 q 179 600 183 619 l 176 575 q 171 525 172 551 q 169 468 169 504 q 196 494 182 478 q 274 553 233 536 q 328 571 307 567 q 394 572 356 579 q 444 560 429 565 l 454 556 q 482 528 474 547 z "},"s":{"ha":671,"x_min":69,"x_max":600,"o":"m 599 460 q 595 450 599 460 q 574 431 592 440 q 535 430 556 422 q 507 456 515 438 l 497 478 q 463 517 490 490 q 389 568 433 544 q 326 593 350 590 q 285 590 303 596 q 279 589 282 590 q 279 585 279 588 q 286 531 279 572 q 301 469 296 485 q 315 433 307 451 q 340 389 321 418 q 397 342 354 365 q 500 285 449 311 q 519 275 506 282 q 538 265 532 268 q 552 256 543 263 q 567 241 561 249 q 578 224 574 233 q 565 138 596 188 q 507 72 546 107 q 421 13 469 36 q 318 -19 371 -11 q 215 -3 256 -29 q 135 85 185 18 q 76 188 83 153 l 71 213 q 78 249 67 232 q 109 272 89 267 q 147 265 129 276 q 168 233 164 253 l 174 208 q 214 144 179 193 q 271 81 254 92 q 304 79 279 75 q 376 103 340 85 q 440 146 413 119 q 475 183 463 167 q 453 196 465 190 q 347 254 401 224 q 256 335 283 292 q 222 396 232 372 q 207 436 214 417 q 189 511 199 460 q 179 590 178 567 q 194 643 181 619 q 260 688 211 675 q 336 693 294 697 q 438 656 381 689 q 531 590 492 626 q 588 519 574 551 l 597 497 q 599 460 607 479 z "},"t":{"ha":599,"x_min":69,"x_max":531,"o":"m 85 531 q 77 539 85 531 q 69 566 69 546 q 83 601 69 586 q 118 617 97 617 l 178 618 q 297 619 236 619 q 321 621 310 619 q 321 633 321 626 q 322 701 321 682 l 322 722 q 337 758 322 743 q 372 772 351 772 q 408 757 393 772 q 422 721 422 742 l 422 700 q 421 631 421 679 q 421 626 421 628 q 453 629 440 628 l 474 632 q 510 620 494 633 q 529 587 526 607 q 519 551 532 567 q 485 532 506 535 l 464 531 q 421 525 447 528 q 421 425 421 482 q 428 292 422 361 q 439 136 435 218 q 443 31 443 54 l 443 7 q 428 -28 443 -14 q 392 -43 413 -43 q 358 -28 372 -43 q 343 7 343 -14 l 343 31 q 339 131 343 51 q 329 282 335 211 q 322 424 322 356 q 321 521 321 482 q 297 519 310 519 q 179 518 238 519 l 121 517 q 85 531 100 517 z "},"u":{"ha":679,"x_min":69,"x_max":611,"o":"m 589 281 q 589 222 589 250 q 589 197 589 208 q 593 124 590 150 q 601 50 596 89 q 608 -4 606 11 l 611 -19 q 601 -56 614 -39 q 569 -77 589 -74 q 532 -68 549 -81 q 511 -35 515 -56 l 510 -19 q 501 38 507 -3 q 494 100 497 69 q 392 3 444 38 q 288 -53 342 -29 q 273 -60 285 -54 q 256 -69 261 -67 q 240 -74 251 -71 q 222 -78 229 -78 q 203 -76 214 -78 q 183 -69 193 -75 q 159 -54 171 -64 q 142 -37 147 -44 q 125 -12 138 -31 q 82 106 93 31 q 71 225 72 171 q 71 364 68 279 q 76 525 74 444 q 82 628 79 610 l 83 644 q 104 676 88 664 q 141 686 121 689 q 174 666 161 683 q 183 629 186 649 l 181 613 q 176 522 178 600 q 171 360 174 442 q 171 229 168 279 q 181 119 172 179 q 206 46 189 69 q 221 26 214 35 q 246 38 232 31 q 338 88 293 60 q 419 167 378 114 q 465 235 447 203 q 479 265 474 250 q 489 294 485 279 q 492 372 490 332 q 496 497 494 453 q 493 506 494 500 q 491 524 492 511 q 494 547 490 538 q 514 563 499 557 q 556 564 529 568 q 591 551 578 561 q 606 528 604 540 q 608 506 608 517 q 603 488 607 494 l 600 481 q 600 354 603 414 q 589 281 597 315 z "},"v":{"ha":746,"x_min":71,"x_max":675,"o":"m 71 593 q 74 603 71 593 q 94 624 76 614 q 131 629 111 635 q 163 607 151 624 l 185 568 q 235 460 211 525 q 268 353 258 394 q 303 258 275 319 q 356 106 335 188 q 371 57 363 78 q 396 165 379 111 q 438 264 413 222 q 489 374 458 299 q 544 489 524 457 q 571 535 561 513 l 582 558 q 611 585 592 578 q 649 583 631 592 q 675 554 668 574 q 672 515 682 535 l 661 492 q 628 433 647 464 q 582 336 611 410 q 524 214 547 254 q 490 136 506 182 q 469 39 476 88 q 447 -50 460 -21 q 413 -90 438 -72 q 356 -92 389 -108 q 306 -40 332 -79 q 258 81 282 -6 q 211 217 240 154 q 169 332 179 289 q 140 425 163 367 q 100 517 119 482 l 76 556 q 71 593 65 572 z "},"w":{"ha":990,"x_min":69,"x_max":919,"o":"m 81 635 q 88 643 81 635 q 115 653 94 651 q 151 642 135 656 q 169 608 168 629 l 175 549 q 193 392 181 490 q 233 229 206 299 q 276 107 258 163 q 282 129 279 118 q 332 274 300 208 q 378 368 363 332 q 401 421 394 404 q 429 453 411 443 q 478 457 460 465 q 503 432 496 449 l 510 414 q 538 318 519 389 q 574 189 553 253 q 586 147 578 175 q 657 293 615 208 q 728 438 699 379 q 788 544 758 500 q 818 596 813 582 l 826 613 q 854 638 835 631 q 892 638 874 646 q 919 610 911 629 q 918 572 926 590 l 910 554 q 871 489 900 533 q 818 394 846 451 q 746 249 789 335 q 675 103 704 163 q 668 88 674 100 q 661 73 663 76 q 654 60 660 69 q 645 46 649 50 q 635 35 642 42 q 624 24 629 28 q 610 16 618 19 q 593 10 603 13 q 538 22 561 3 q 507 67 514 42 q 478 158 497 94 q 444 275 460 217 q 422 229 435 253 q 379 107 394 174 q 338 -8 361 24 q 322 -23 331 -15 q 301 -38 314 -31 q 272 -45 288 -46 q 239 -33 256 -44 q 222 -21 229 -28 q 210 -1 215 -14 q 202 15 204 11 q 194 39 200 19 q 188 61 188 58 q 140 193 168 118 q 94 379 108 274 q 75 539 81 479 l 69 600 q 81 635 68 619 z "},"x":{"ha":850,"x_min":72,"x_max":781,"o":"m 100 -40 q 90 -36 100 -40 q 73 -12 81 -32 q 74 26 65 7 q 100 53 82 44 l 140 69 q 236 121 178 85 q 354 211 294 156 q 408 265 385 240 q 333 374 374 308 q 239 519 279 458 l 199 581 q 190 619 186 599 q 212 650 194 639 q 249 657 229 661 q 282 636 269 653 l 322 575 q 418 426 364 513 q 478 340 450 376 q 533 411 504 371 q 601 519 576 468 q 660 607 632 582 q 694 636 682 628 l 704 642 q 742 649 721 653 q 774 628 763 644 q 781 590 785 611 q 760 558 776 569 l 750 553 q 726 533 744 549 q 692 475 714 521 q 614 351 663 417 q 542 261 575 299 q 575 210 563 233 q 597 149 592 175 q 603 128 600 136 l 611 122 q 632 90 628 111 q 624 53 636 69 q 592 32 613 36 q 556 39 572 28 l 544 46 q 510 90 519 63 q 499 131 503 107 q 485 165 497 142 q 472 186 481 174 q 422 139 450 164 q 289 35 354 75 q 179 -24 222 -6 l 139 -40 q 100 -40 119 -47 z "},"y":{"ha":993,"x_min":69,"x_max":924,"o":"m 863 546 q 873 549 863 546 q 901 540 883 551 q 923 509 918 529 q 917 472 928 489 l 910 460 q 869 400 903 449 q 796 289 838 353 q 704 151 753 222 q 592 14 653 76 q 458 -101 531 -47 q 336 -189 389 -156 q 225 -254 285 -221 q 142 -294 160 -290 l 129 -297 q 92 -290 110 -301 q 71 -258 75 -278 q 78 -221 67 -239 q 110 -199 89 -203 l 118 -197 q 176 -167 133 -192 q 283 -104 233 -135 q 399 -22 331 -74 q 517 82 463 26 q 515 86 517 83 l 511 99 q 489 140 507 108 q 438 236 464 185 q 388 343 410 289 q 333 471 371 383 q 296 590 299 553 l 292 622 q 303 658 290 642 q 337 677 317 675 q 373 666 357 679 q 392 632 389 653 l 394 601 q 425 510 397 578 q 479 382 457 435 q 526 282 500 331 q 575 193 553 232 q 590 165 585 174 q 621 208 607 186 q 713 343 669 278 q 788 456 754 408 q 825 513 818 503 l 832 524 q 863 546 842 540 z "},"z":{"ha":675,"x_min":69,"x_max":606,"o":"m 85 557 q 77 565 85 557 q 69 592 69 572 q 84 627 69 613 q 119 643 99 642 l 150 643 q 232 636 183 643 q 326 625 276 631 q 404 614 378 618 q 457 606 426 608 q 493 597 479 604 q 523 565 511 589 q 524 518 535 540 q 515 502 519 510 q 500 485 510 494 q 485 469 490 475 q 462 449 479 464 q 438 425 444 433 q 317 306 369 363 q 232 201 267 251 q 185 131 196 150 q 181 118 182 125 q 218 115 196 117 q 319 113 269 114 q 390 110 369 110 q 453 107 414 110 q 511 104 489 104 q 571 90 549 104 l 583 83 q 605 52 600 72 q 599 15 610 32 q 569 -8 589 -3 q 532 -3 549 -14 l 522 3 q 510 4 518 4 q 446 7 483 4 q 390 10 411 10 q 315 13 368 10 q 215 15 265 14 q 129 26 158 18 q 89 60 103 36 q 78 111 75 85 q 99 179 81 147 q 149 257 111 203 q 243 374 188 314 q 369 499 299 433 q 378 508 372 501 q 386 515 383 514 q 314 525 363 519 q 219 538 265 532 q 150 543 176 543 l 119 543 q 85 557 100 542 z "},"":{"ha":264,"x_min":69,"x_max":193,"o":"m 133 897 q 143 900 133 897 q 170 892 153 903 q 193 862 188 882 q 188 825 199 842 l 181 810 q 174 788 176 804 q 169 733 169 768 l 169 599 q 171 582 169 589 l 171 572 q 161 536 174 553 q 128 517 149 519 q 91 528 107 515 q 72 561 75 540 l 71 571 q 69 599 69 583 l 69 733 q 75 807 69 778 q 93 860 81 839 l 101 875 q 133 897 113 892 z "},"":{"ha":343,"x_min":71,"x_max":275,"o":"m 249 540 q 240 534 249 540 q 212 531 232 528 q 179 551 192 535 q 169 588 167 568 l 171 601 q 175 639 174 613 q 172 672 175 660 q 161 715 168 690 q 149 767 154 742 q 140 793 144 782 q 124 804 135 797 l 93 822 q 71 853 76 833 q 76 891 65 874 q 108 914 88 908 q 146 908 128 919 l 176 890 q 199 875 192 879 q 216 859 206 871 q 232 833 226 847 q 244 792 238 818 q 258 742 251 768 q 269 694 265 714 q 274 633 276 668 q 271 586 272 603 l 268 574 q 249 540 265 553 z "},"":{"ha":518,"x_min":69,"x_max":449,"o":"m 413 817 q 423 814 413 817 q 443 793 433 811 q 447 755 453 775 q 424 725 442 735 l 408 717 q 383 700 396 710 q 378 696 379 697 q 375 688 375 693 q 372 658 372 674 q 371 629 371 642 q 374 613 372 621 l 376 599 q 369 561 381 579 q 339 539 358 543 q 301 546 319 535 q 279 576 283 557 l 276 590 q 271 626 272 607 q 272 664 271 643 q 276 703 274 685 q 290 746 281 728 q 328 783 303 767 q 361 804 343 794 l 375 813 q 413 817 393 822 m 228 872 q 238 867 228 872 q 254 844 247 863 q 253 806 261 825 q 225 779 244 786 l 204 771 q 186 757 194 768 q 174 735 175 744 q 169 708 169 721 q 174 661 169 692 q 183 619 176 635 l 192 597 q 192 559 200 578 q 165 533 183 540 q 126 533 146 525 q 99 560 107 540 l 90 582 q 74 650 79 610 q 69 707 69 686 q 76 760 69 732 q 108 821 83 790 q 168 865 135 851 l 190 874 q 228 872 208 881 z "},"":{"ha":535,"x_min":71,"x_max":467,"o":"m 433 494 q 424 489 433 494 q 395 488 415 483 q 364 510 375 493 q 358 549 353 528 l 361 564 q 365 592 364 574 q 365 646 365 613 q 361 710 365 678 q 343 750 357 733 q 306 796 322 776 l 288 817 q 276 853 275 832 q 293 887 278 874 q 329 899 308 900 q 364 882 350 897 l 381 861 q 421 813 399 840 q 460 725 451 775 q 465 646 465 685 q 464 586 465 610 q 458 540 463 560 l 456 525 q 433 494 450 506 m 240 520 q 233 513 240 520 q 205 506 225 506 q 170 520 185 506 q 156 556 156 535 l 156 575 q 153 613 156 592 q 139 653 151 628 q 114 701 121 686 q 100 736 104 719 q 93 764 97 747 q 83 785 89 775 l 76 799 q 71 835 65 815 q 94 866 76 856 q 133 871 113 876 q 163 847 153 865 l 171 833 q 188 793 181 815 q 197 761 194 774 q 204 746 199 756 q 228 697 211 731 q 253 622 249 656 q 256 575 256 596 l 256 556 q 240 520 256 535 z "}}}
